var fontJSON3= 
{"glyphs":{"0":{"ha":681,"x_min":51,"x_max":628,"o":"m 453 947 q 480 927 453 947 q 544 840 506 908 q 605 681 583 771 q 626 486 626 590 q 606 292 626 382 q 548 133 586 201 q 457 26 510 64 q 340 -12 404 -12 q 222 26 275 -12 q 132 133 169 64 q 74 292 94 201 q 53 486 53 382 q 75 681 53 590 q 135 840 97 771 q 226 947 174 908 q 340 985 279 985 q 453 947 401 985 m 464 156 q 472 190 464 156 q 485 309 479 224 q 490 486 490 394 q 483 663 490 578 q 460 816 476 749 q 415 923 444 883 q 340 963 386 963 q 265 923 294 963 q 219 816 236 883 q 197 663 203 749 q 190 486 190 578 q 196 309 190 394 q 217 156 201 224 q 261 50 232 89 q 340 11 290 11 q 419 50 389 11 q 464 156 449 89 z "},"1":{"ha":413,"x_min":39,"x_max":386,"o":"m 271 140 q 305 59 271 93 q 386 25 339 25 l 386 0 l 39 0 l 39 25 l 40 25 q 121 59 88 25 q 154 140 154 93 l 154 764 q 147 831 154 806 q 121 868 139 857 q 86 882 103 879 q 39 885 69 885 l 39 901 l 207 972 l 271 972 l 271 140 z "},"2":{"ha":607,"x_min":43,"x_max":554,"o":"m 436 139 q 505 167 476 139 q 533 236 533 196 l 553 236 l 553 0 l 44 0 l 44 97 l 278 358 q 376 521 343 431 q 410 706 410 611 q 403 765 410 731 q 383 843 397 799 q 335 917 368 888 q 257 947 301 947 q 177 919 201 947 q 156 856 153 890 q 179 799 160 822 q 196 753 196 779 q 176 705 196 725 q 128 685 156 685 q 81 703 100 685 q 60 749 61 721 q 69 820 56 781 q 109 897 82 860 q 185 960 136 935 q 297 985 235 985 q 425 951 372 985 q 505 861 478 917 q 532 739 532 806 q 521 648 532 689 q 491 574 510 607 q 449 512 472 540 q 403 458 426 483 l 118 139 l 436 139 z "},"3":{"ha":592,"x_min":47,"x_max":539,"o":"m 285 524 q 374 497 332 515 q 454 447 415 479 q 516 363 493 415 q 539 245 539 311 q 514 128 539 179 q 448 47 489 76 q 362 2 407 17 q 271 -12 317 -12 q 171 6 214 -12 q 106 48 128 25 q 70 105 85 71 q 53 156 56 139 q 47 193 50 172 q 47 197 47 196 q 47 201 47 201 q 67 251 47 231 q 116 271 88 271 q 164 251 144 271 q 183 201 183 231 q 178 175 183 188 q 162 95 163 126 q 176 45 161 64 q 212 19 192 26 q 257 13 232 13 q 290 18 272 13 q 330 40 307 24 q 372 83 353 57 q 403 155 390 108 q 415 261 415 201 q 398 381 415 331 q 358 456 381 431 q 305 494 336 481 q 255 511 274 508 q 218 514 236 514 l 218 531 q 294 544 263 531 q 342 579 325 558 q 369 633 360 600 q 382 694 379 667 q 385 761 385 722 q 350 907 385 853 q 271 961 315 961 q 221 951 244 961 q 181 923 197 942 q 169 870 165 904 q 201 794 174 836 q 215 753 215 776 q 196 705 215 725 q 147 685 176 685 q 103 701 122 685 q 81 740 85 717 l 81 740 q 79 749 79 744 q 81 806 76 776 q 99 869 85 836 q 135 926 113 901 q 199 968 158 951 q 292 985 239 985 q 395 965 351 985 q 460 919 439 944 q 492 856 481 893 q 506 801 504 819 q 507 763 507 782 q 485 663 507 707 q 428 591 464 618 q 358 548 393 564 q 285 524 322 532 z "},"4":{"ha":696,"x_min":69,"x_max":658,"o":"m 543 972 l 543 292 l 658 292 l 658 267 l 543 267 l 543 104 q 566 48 543 71 q 622 25 589 25 l 622 0 l 349 0 l 349 25 q 405 48 382 25 q 428 104 428 71 l 428 267 l 69 267 l 450 972 l 543 972 m 428 292 l 428 882 l 107 292 l 428 292 z "},"5":{"ha":574,"x_min":51,"x_max":522,"o":"m 286 604 q 390 578 344 604 q 459 515 435 551 q 499 433 483 479 q 518 354 514 386 q 522 297 522 322 q 499 156 522 217 q 444 65 475 96 q 374 16 414 35 q 310 -7 335 -3 q 268 -11 286 -11 q 170 5 214 -11 q 101 48 126 21 q 64 107 76 75 q 54 172 51 139 q 72 232 57 204 q 133 271 92 271 q 182 251 163 271 q 201 201 201 231 q 186 158 201 178 q 163 80 158 113 q 192 30 168 47 q 247 13 215 13 q 267 13 260 13 q 291 18 274 13 q 319 33 308 24 q 347 64 331 43 q 372 114 363 85 q 388 190 382 143 q 394 297 394 238 q 392 346 394 318 q 381 415 390 374 q 357 488 372 456 q 314 543 342 519 q 250 567 286 567 q 185 553 213 567 q 140 521 157 540 q 115 483 124 501 l 89 483 l 89 974 l 394 974 q 444 994 424 974 q 465 1044 465 1015 l 486 1044 l 486 835 l 108 835 l 108 510 q 128 535 117 522 q 191 583 151 563 q 286 604 231 604 z "},"6":{"ha":615,"x_min":53,"x_max":568,"o":"m 335 636 q 443 604 396 636 q 516 524 490 572 q 555 424 542 475 q 568 324 568 372 q 553 215 568 271 q 510 106 539 158 q 431 21 482 54 q 314 -12 379 -12 q 208 16 254 -12 q 133 89 161 44 q 85 194 104 133 q 60 315 67 256 q 53 436 53 374 q 85 659 53 560 q 166 816 118 758 q 275 913 214 874 q 385 967 336 953 q 475 985 433 982 q 485 981 481 985 q 489 972 489 978 q 481 960 489 963 q 353 894 408 938 q 267 806 297 851 q 216 702 236 760 q 189 603 196 644 q 179 515 182 561 q 240 597 197 558 q 335 636 282 636 m 217 99 q 236 56 217 99 q 310 13 256 13 q 405 99 365 13 q 444 306 444 185 q 405 514 444 428 q 310 600 365 600 q 217 514 256 600 q 178 306 178 428 q 217 99 178 185 z "},"7":{"ha":590,"x_min":36,"x_max":521,"o":"m 282 383 q 261 322 265 344 q 259 249 251 285 q 279 190 267 213 q 304 136 292 167 q 317 79 317 106 q 300 18 317 49 q 244 -12 283 -12 q 183 18 201 -12 q 164 89 164 49 q 247 375 164 190 q 341 599 258 400 q 435 828 424 797 l 154 828 q 85 799 114 828 q 57 729 57 771 l 36 729 l 36 972 l 521 972 q 398 670 511 947 q 282 383 285 393 z "},"8":{"ha":654,"x_min":53,"x_max":601,"o":"m 346 524 q 436 497 394 515 q 517 447 478 479 q 578 363 556 415 q 600 246 600 311 q 574 127 600 179 q 506 46 547 75 q 419 2 464 17 q 333 -12 375 -12 q 135 58 217 -12 q 53 246 53 128 q 76 363 53 311 q 137 447 99 415 q 217 497 175 479 q 307 524 260 515 q 233 548 268 532 q 163 591 199 564 q 106 663 126 618 q 85 763 85 707 q 88 801 85 781 q 104 856 90 821 q 142 919 118 892 q 214 966 165 946 q 326 986 263 986 q 438 966 390 986 q 509 919 485 946 q 548 857 533 892 q 566 801 563 822 q 569 763 569 779 q 548 663 569 707 q 490 591 526 618 q 419 548 454 564 q 346 524 385 532 m 207 761 q 210 687 207 718 q 225 621 214 656 q 262 565 236 586 q 326 535 288 543 q 391 565 365 543 q 428 621 417 586 q 442 687 439 656 q 446 761 446 718 q 413 908 446 854 q 326 961 379 961 q 239 908 271 961 q 207 761 207 856 m 326 13 q 370 24 347 13 q 419 62 393 36 q 461 140 444 88 q 478 261 478 192 q 463 375 478 326 q 424 450 449 424 q 376 490 400 476 q 326 508 353 503 q 276 490 300 503 q 228 450 253 476 q 190 375 204 424 q 176 261 176 326 q 192 140 176 192 q 231 62 207 88 q 279 24 256 36 q 326 13 303 13 z "},"9":{"ha":615,"x_min":47,"x_max":563,"o":"m 301 985 q 408 956 361 985 q 483 883 454 928 q 530 778 511 839 q 556 658 549 717 q 563 536 563 599 q 529 313 563 411 q 449 156 496 214 q 340 59 401 99 q 231 5 279 19 q 140 -12 182 -10 q 131 -9 135 -12 q 126 0 126 -6 q 135 13 126 10 q 263 78 207 35 q 349 167 318 121 q 399 270 379 213 q 426 369 419 328 q 436 456 433 411 q 376 375 418 414 q 281 336 333 336 q 172 367 219 336 q 99 448 125 399 q 60 549 74 497 q 47 647 47 600 q 62 757 47 701 q 105 865 76 813 q 185 951 133 918 q 301 985 236 985 m 210 458 q 230 415 210 458 q 305 372 250 372 q 399 458 360 372 q 438 666 438 544 q 399 874 438 788 q 305 960 360 960 q 210 874 250 960 q 171 666 171 788 q 210 458 171 544 z "},"\u000b":{"ha":732,"x_min":69,"x_max":663,"o":"m 69 972 l 663 972 l 663 0 l 69 0 l 69 972 m 108 944 l 365 515 l 624 944 l 108 944 m 349 486 l 99 903 l 99 68 l 349 486 m 367 457 l 110 29 l 624 29 l 367 457 m 383 486 l 635 65 l 635 906 l 383 486 z "},"\f":{"ha":732,"x_min":69,"x_max":663,"o":"m 69 972 l 663 972 l 663 0 l 69 0 l 69 972 m 108 944 l 365 515 l 624 944 l 108 944 m 349 486 l 99 903 l 99 68 l 349 486 m 367 457 l 110 29 l 624 29 l 367 457 m 383 486 l 635 65 l 635 906 l 383 486 z "},"¤":{"ha":732,"x_min":69,"x_max":663,"o":"m 69 972 l 663 972 l 663 0 l 69 0 l 69 972 m 108 944 l 365 515 l 624 944 l 108 944 m 349 486 l 99 903 l 99 68 l 349 486 m 367 457 l 110 29 l 624 29 l 367 457 m 383 486 l 635 65 l 635 906 l 383 486 z "},"¦":{"ha":732,"x_min":69,"x_max":663,"o":"m 69 972 l 663 972 l 663 0 l 69 0 l 69 972 m 108 944 l 365 515 l 624 944 l 108 944 m 349 486 l 99 903 l 99 68 l 349 486 m 367 457 l 110 29 l 624 29 l 367 457 m 383 486 l 635 65 l 635 906 l 383 486 z "},"¨":{"ha":732,"x_min":69,"x_max":663,"o":"m 69 972 l 663 972 l 663 0 l 69 0 l 69 972 m 108 944 l 365 515 l 624 944 l 108 944 m 349 486 l 99 903 l 99 68 l 349 486 m 367 457 l 110 29 l 624 29 l 367 457 m 383 486 l 635 65 l 635 906 l 383 486 z "},"¬":{"ha":732,"x_min":69,"x_max":663,"o":"m 69 972 l 663 972 l 663 0 l 69 0 l 69 972 m 108 944 l 365 515 l 624 944 l 108 944 m 349 486 l 99 903 l 99 68 l 349 486 m 367 457 l 110 29 l 624 29 l 367 457 m 383 486 l 635 65 l 635 906 l 383 486 z "},"¯":{"ha":732,"x_min":69,"x_max":663,"o":"m 69 972 l 663 972 l 663 0 l 69 0 l 69 972 m 108 944 l 365 515 l 624 944 l 108 944 m 349 486 l 99 903 l 99 68 l 349 486 m 367 457 l 110 29 l 624 29 l 367 457 m 383 486 l 635 65 l 635 906 l 383 486 z "},"±":{"ha":732,"x_min":69,"x_max":663,"o":"m 69 972 l 663 972 l 663 0 l 69 0 l 69 972 m 108 944 l 365 515 l 624 944 l 108 944 m 349 486 l 99 903 l 99 68 l 349 486 m 367 457 l 110 29 l 624 29 l 367 457 m 383 486 l 635 65 l 635 906 l 383 486 z "},"´":{"ha":732,"x_min":69,"x_max":663,"o":"m 69 972 l 663 972 l 663 0 l 69 0 l 69 972 m 108 944 l 365 515 l 624 944 l 108 944 m 349 486 l 99 903 l 99 68 l 349 486 m 367 457 l 110 29 l 624 29 l 367 457 m 383 486 l 635 65 l 635 906 l 383 486 z "},"µ":{"ha":732,"x_min":69,"x_max":663,"o":"m 69 972 l 663 972 l 663 0 l 69 0 l 69 972 m 108 944 l 365 515 l 624 944 l 108 944 m 349 486 l 99 903 l 99 68 l 349 486 m 367 457 l 110 29 l 624 29 l 367 457 m 383 486 l 635 65 l 635 906 l 383 486 z "},"¶":{"ha":732,"x_min":69,"x_max":663,"o":"m 69 972 l 663 972 l 663 0 l 69 0 l 69 972 m 108 944 l 365 515 l 624 944 l 108 944 m 349 486 l 99 903 l 99 68 l 349 486 m 367 457 l 110 29 l 624 29 l 367 457 m 383 486 l 635 65 l 635 906 l 383 486 z "},"¸":{"ha":732,"x_min":69,"x_max":663,"o":"m 69 972 l 663 972 l 663 0 l 69 0 l 69 972 m 108 944 l 365 515 l 624 944 l 108 944 m 349 486 l 99 903 l 99 68 l 349 486 m 367 457 l 110 29 l 624 29 l 367 457 m 383 486 l 635 65 l 635 906 l 383 486 z "},"―":{"ha":732,"x_min":69,"x_max":663,"o":"m 69 972 l 663 972 l 663 0 l 69 0 l 69 972 m 108 944 l 365 515 l 624 944 l 108 944 m 349 486 l 99 903 l 99 68 l 349 486 m 367 457 l 110 29 l 624 29 l 367 457 m 383 486 l 635 65 l 635 906 l 383 486 z "},"‖":{"ha":732,"x_min":69,"x_max":663,"o":"m 69 972 l 663 972 l 663 0 l 69 0 l 69 972 m 108 944 l 365 515 l 624 944 l 108 944 m 349 486 l 99 903 l 99 68 l 349 486 m 367 457 l 110 29 l 624 29 l 367 457 m 383 486 l 635 65 l 635 906 l 383 486 z "},"‗":{"ha":732,"x_min":69,"x_max":663,"o":"m 69 972 l 663 972 l 663 0 l 69 0 l 69 972 m 108 944 l 365 515 l 624 944 l 108 944 m 349 486 l 99 903 l 99 68 l 349 486 m 367 457 l 110 29 l 624 29 l 367 457 m 383 486 l 635 65 l 635 906 l 383 486 z "},"‚":{"ha":732,"x_min":69,"x_max":663,"o":"m 69 972 l 663 972 l 663 0 l 69 0 l 69 972 m 108 944 l 365 515 l 624 944 l 108 944 m 349 486 l 99 903 l 99 68 l 349 486 m 367 457 l 110 29 l 624 29 l 367 457 m 383 486 l 635 65 l 635 906 l 383 486 z "},"‛":{"ha":732,"x_min":69,"x_max":663,"o":"m 69 972 l 663 972 l 663 0 l 69 0 l 69 972 m 108 944 l 365 515 l 624 944 l 108 944 m 349 486 l 99 903 l 99 68 l 349 486 m 367 457 l 110 29 l 624 29 l 367 457 m 383 486 l 635 65 l 635 906 l 383 486 z "},"‟":{"ha":732,"x_min":69,"x_max":663,"o":"m 69 972 l 663 972 l 663 0 l 69 0 l 69 972 m 108 944 l 365 515 l 624 944 l 108 944 m 349 486 l 99 903 l 99 68 l 349 486 m 367 457 l 110 29 l 624 29 l 367 457 m 383 486 l 635 65 l 635 906 l 383 486 z "},"‡":{"ha":732,"x_min":69,"x_max":663,"o":"m 69 972 l 663 972 l 663 0 l 69 0 l 69 972 m 108 944 l 365 515 l 624 944 l 108 944 m 349 486 l 99 903 l 99 68 l 349 486 m 367 457 l 110 29 l 624 29 l 367 457 m 383 486 l 635 65 l 635 906 l 383 486 z "},"‣":{"ha":732,"x_min":69,"x_max":663,"o":"m 69 972 l 663 972 l 663 0 l 69 0 l 69 972 m 108 944 l 365 515 l 624 944 l 108 944 m 349 486 l 99 903 l 99 68 l 349 486 m 367 457 l 110 29 l 624 29 l 367 457 m 383 486 l 635 65 l 635 906 l 383 486 z "},"․":{"ha":732,"x_min":69,"x_max":663,"o":"m 69 972 l 663 972 l 663 0 l 69 0 l 69 972 m 108 944 l 365 515 l 624 944 l 108 944 m 349 486 l 99 903 l 99 68 l 349 486 m 367 457 l 110 29 l 624 29 l 367 457 m 383 486 l 635 65 l 635 906 l 383 486 z "},"‥":{"ha":732,"x_min":69,"x_max":663,"o":"m 69 972 l 663 972 l 663 0 l 69 0 l 69 972 m 108 944 l 365 515 l 624 944 l 108 944 m 349 486 l 99 903 l 99 68 l 349 486 m 367 457 l 110 29 l 624 29 l 367 457 m 383 486 l 635 65 l 635 906 l 383 486 z "},"\u0000":{"ha":0,"x_min":0,"x_max":0,"o":""},"\n":{"ha":0,"x_min":0,"x_max":0,"o":""},"\r":{"ha":0,"x_min":0,"x_max":0,"o":""}," ":{"ha":419,"x_min":0,"x_max":0,"o":""},"!":{"ha":254,"x_min":56,"x_max":199,"o":"m 108 438 q 90 569 100 503 q 69 707 79 636 q 56 861 60 779 l 56 885 q 71 964 56 932 q 126 996 86 996 q 182 964 167 996 q 197 885 197 932 q 197 874 197 879 q 196 861 196 868 q 182 707 192 779 q 162 569 172 636 q 144 437 151 503 q 136 301 136 371 l 115 301 q 108 438 115 371 m 163 166 q 171 160 163 166 q 189 134 179 154 q 199 89 199 114 q 189 45 199 65 q 163 13 179 25 q 127 1 147 1 q 91 13 107 1 q 65 45 75 25 q 56 89 56 65 q 65 134 56 114 q 91 166 75 154 q 127 178 107 178 q 163 166 147 178 z "},"\"":{"ha":403,"x_min":44,"x_max":358,"o":"m 62 976 q 70 987 62 976 q 106 999 79 999 q 149 976 132 999 q 167 913 167 953 l 167 901 q 165 889 167 896 q 153 828 161 853 q 136 778 144 803 q 121 721 128 754 q 115 642 115 689 q 107 633 115 633 l 103 633 q 96 642 96 633 q 89 721 94 689 q 74 778 83 754 q 58 828 65 803 q 46 889 50 853 q 44 901 44 896 q 44 913 44 907 q 62 976 44 953 m 297 999 q 310 999 297 999 q 341 976 324 999 q 358 913 358 953 l 358 901 q 357 889 358 896 q 344 828 353 853 q 328 778 336 803 q 313 721 319 754 q 307 642 307 689 q 299 633 307 633 l 294 633 q 288 642 288 633 q 281 721 286 689 q 266 778 275 754 q 249 828 257 803 q 238 889 242 853 q 236 901 236 896 q 236 913 236 907 q 253 976 236 953 q 297 999 271 999 z "},"#":{"ha":671,"x_min":33,"x_max":638,"o":"m 638 665 l 460 665 l 426 353 l 606 353 l 606 328 l 424 328 l 389 7 l 369 6 l 403 328 l 221 328 l 188 7 l 167 7 l 201 328 l 35 328 l 35 353 l 204 353 l 236 665 l 65 665 l 65 692 l 239 692 l 271 992 l 292 992 l 260 692 l 442 692 l 474 990 l 493 992 l 463 692 l 638 692 l 638 665 m 406 353 l 439 665 l 257 665 l 224 353 l 406 353 z "},"$":{"ha":611,"x_min":56,"x_max":557,"o":"m 557 256 q 540 146 557 193 q 493 70 522 99 q 431 26 464 42 q 363 4 399 10 l 363 -90 l 342 -90 l 342 1 q 317 0 329 0 q 271 4 293 0 l 271 -90 l 250 -90 l 250 10 q 168 60 214 22 q 108 66 142 82 q 74 15 75 50 q 74 14 74 14 l 56 14 l 56 285 l 76 285 q 133 153 81 239 q 250 38 185 67 l 250 463 q 110 608 160 540 q 61 756 61 675 q 75 853 61 810 q 108 921 89 896 q 156 963 128 946 q 205 988 183 981 q 250 997 226 994 l 250 1089 l 271 1089 l 271 999 q 281 999 276 999 q 283 999 282 999 q 283 999 283 999 q 285 999 283 999 q 342 988 313 999 l 342 1089 l 363 1089 l 363 978 q 418 940 390 964 q 478 933 444 918 q 514 983 513 949 q 514 986 514 985 l 532 986 l 532 714 l 511 714 q 464 834 507 756 q 363 950 421 913 l 363 575 q 435 513 406 542 q 496 444 465 483 q 542 357 526 404 q 557 256 557 310 m 288 975 q 271 974 279 974 l 271 647 q 342 592 275 643 l 342 961 q 288 975 315 974 m 146 832 q 173 746 146 786 q 250 664 200 706 l 250 969 q 173 920 200 958 q 146 832 146 882 m 303 25 q 342 29 321 25 l 342 385 q 271 446 329 397 l 271 31 q 303 25 286 25 m 363 33 q 444 82 411 47 q 478 178 478 117 q 363 367 478 261 l 363 33 z "},"%":{"ha":1061,"x_min":42,"x_max":1018,"o":"m 955 498 q 970 480 955 498 q 1001 408 985 461 q 1018 286 1018 356 q 999 163 1018 217 q 947 74 979 110 q 877 19 915 38 q 803 1 839 1 q 721 19 760 1 q 652 74 682 38 q 606 163 622 110 q 589 286 589 217 q 606 408 589 356 q 652 498 622 461 q 721 553 682 535 q 803 571 760 571 q 886 553 847 571 q 955 498 925 535 m 873 102 q 877 120 873 102 q 886 185 882 138 q 890 286 890 233 q 886 387 890 340 q 873 469 882 433 q 847 526 864 506 q 803 546 829 546 q 760 526 776 546 q 734 469 743 506 q 721 387 725 433 q 717 286 717 340 q 721 185 717 233 q 734 102 725 138 q 760 47 743 67 q 803 26 776 26 q 847 47 829 26 q 873 102 864 67 m 401 501 q 385 483 401 501 q 331 447 369 465 q 258 429 293 429 q 175 447 214 429 q 106 501 136 465 q 60 591 76 538 q 43 714 43 644 q 60 836 43 783 q 106 925 76 889 q 175 980 136 961 q 258 999 214 999 q 340 980 301 999 q 408 925 379 961 q 454 836 438 889 q 471 714 471 783 q 452 591 471 644 q 401 501 433 538 m 188 530 q 193 512 188 530 q 214 474 197 494 q 258 454 231 454 q 300 474 283 454 q 326 530 317 494 q 340 613 336 565 q 343 714 343 661 q 340 814 343 767 q 326 897 336 861 q 300 953 317 932 q 258 974 283 974 q 214 953 231 974 q 188 897 197 932 q 175 815 179 861 q 171 714 171 768 q 175 613 171 660 q 188 530 179 565 m 788 986 l 811 986 l 274 14 l 250 14 l 788 986 z "},"&":{"ha":857,"x_min":42,"x_max":831,"o":"m 699 431 q 635 267 675 344 q 599 201 618 233 l 619 161 q 704 72 650 104 q 822 39 758 39 l 822 14 l 657 14 q 574 37 613 14 q 515 99 536 60 q 428 35 474 60 q 286 1 363 1 q 159 30 214 1 q 74 112 104 58 q 43 239 43 165 q 64 342 43 297 q 117 422 85 388 q 184 481 150 457 q 247 521 218 506 q 276 536 265 531 l 217 649 q 182 731 196 686 q 168 808 168 775 q 197 909 168 867 q 274 975 225 951 q 388 999 324 999 q 493 978 447 999 q 565 919 539 957 q 592 831 592 882 q 576 744 592 781 q 531 679 560 707 q 464 628 501 651 q 393 586 431 608 l 588 221 q 625 290 608 253 q 681 442 660 361 q 683 451 682 447 q 665 543 697 501 q 581 585 632 585 l 581 610 l 831 610 l 831 585 q 755 558 788 585 q 713 489 722 531 q 699 431 707 460 m 328 958 q 318 949 328 958 q 297 910 307 940 q 288 849 288 881 q 307 762 288 813 q 360 649 326 711 l 382 607 q 419 644 400 622 q 460 719 443 672 q 476 833 476 765 q 469 898 476 864 q 442 954 461 932 q 388 976 424 976 q 328 958 350 976 m 450 78 q 504 118 478 94 l 288 518 q 229 464 253 493 q 188 384 201 431 q 174 271 174 338 q 185 189 174 229 q 219 117 197 149 q 272 66 242 85 q 342 47 303 47 q 450 78 399 47 z "},"'":{"ha":211,"x_min":44,"x_max":167,"o":"m 106 999 q 119 999 106 999 q 149 976 132 999 q 167 913 167 953 l 167 901 q 165 889 167 896 q 153 828 161 853 q 136 778 144 803 q 121 721 128 754 q 115 643 115 690 q 106 633 115 633 q 96 643 96 633 q 89 721 94 690 q 74 778 83 754 q 58 828 65 803 q 46 889 50 853 q 44 901 44 896 q 44 913 44 907 q 62 976 44 953 q 106 999 79 999 z "},"(":{"ha":333,"x_min":54,"x_max":357,"o":"m 218 67 q 230 25 218 67 q 276 -84 242 -18 q 357 -187 311 -150 l 347 -207 q 230 -110 283 -172 q 137 35 176 -49 q 76 221 97 119 q 54 435 54 322 q 92 708 54 586 q 196 918 129 831 q 347 1050 263 1006 l 357 1032 q 276 932 311 994 q 218 790 242 869 q 183 619 194 710 q 171 435 171 528 q 183 247 171 342 q 218 67 194 153 z "},")":{"ha":335,"x_min":-22,"x_max":281,"o":"m 197 809 q 216 767 197 809 q 258 624 236 725 q 281 408 281 522 q 242 135 281 258 q 138 -74 204 13 q -12 -207 72 -161 l -22 -187 q 58 -89 24 -151 q 116 54 93 -26 q 151 225 139 135 q 164 409 164 315 q 151 597 164 503 q 116 777 139 692 q 58 928 93 863 q -22 1031 24 994 l -12 1050 q 104 955 51 1017 q 197 809 157 893 z "},"*":{"ha":619,"x_min":42,"x_max":576,"o":"m 533 572 q 569 533 561 557 q 563 486 576 508 q 526 458 550 463 q 474 468 501 453 q 465 473 469 471 q 457 479 461 475 q 423 513 436 497 q 398 545 410 529 q 369 578 386 561 q 319 615 351 596 q 326 555 321 579 q 340 512 332 531 q 356 474 349 493 q 368 426 364 456 q 368 417 368 422 l 368 407 q 352 356 368 375 q 310 338 336 338 q 267 356 283 338 q 250 407 250 375 q 250 417 250 413 q 251 426 250 422 q 262 474 254 456 q 278 512 269 493 q 292 555 286 531 q 299 615 297 579 q 250 578 268 596 q 220 545 232 561 q 196 513 208 529 q 161 479 183 497 q 153 473 157 475 q 144 468 149 471 q 93 458 117 453 q 56 486 69 463 q 50 533 43 508 q 86 572 57 557 q 94 577 90 575 q 103 582 97 579 q 149 595 128 592 q 189 601 169 599 q 232 610 208 603 q 289 633 256 617 q 232 658 256 651 q 189 667 208 665 q 149 673 169 669 q 103 686 128 676 q 94 691 97 689 q 86 696 90 693 q 50 736 57 713 q 56 782 43 760 q 93 811 69 806 q 144 800 117 817 q 153 795 149 797 q 161 789 157 793 q 196 756 183 772 q 220 723 208 739 q 250 690 232 707 q 299 653 268 672 q 292 714 297 690 q 278 756 286 738 q 262 794 269 775 q 251 842 254 814 q 250 851 250 847 q 250 861 250 856 q 267 913 250 894 q 310 931 283 931 q 352 913 336 931 q 368 861 368 894 l 368 851 q 368 842 368 847 q 356 794 364 814 q 340 756 349 775 q 326 714 332 738 q 319 653 321 690 q 369 690 351 672 q 398 723 386 707 q 423 756 410 739 q 457 789 436 772 q 465 796 461 793 q 474 800 469 797 q 526 811 501 817 q 563 782 550 806 q 569 736 576 760 q 533 696 561 713 q 525 691 529 693 q 515 686 521 689 q 470 673 490 676 q 430 667 450 669 q 386 658 410 665 q 331 633 363 651 q 386 610 363 617 q 430 601 410 603 q 470 595 450 599 q 515 582 490 592 q 525 577 521 579 q 533 572 529 575 z "},"+":{"ha":524,"x_min":31,"x_max":492,"o":"m 274 428 l 490 428 l 490 403 l 274 403 l 274 186 l 249 186 l 249 403 l 32 403 l 32 428 l 249 428 l 249 644 l 274 644 l 274 428 z "},",":{"ha":249,"x_min":25,"x_max":215,"o":"m 171 118 q 209 42 203 92 q 198 -56 215 -8 q 138 -140 181 -104 q 38 -176 94 -175 q 35 -175 36 -176 q 29 -162 26 -172 q 35 -160 32 -158 q 75 -153 54 -162 q 110 -128 96 -144 q 133 -92 125 -111 q 133 -54 140 -74 q 106 -25 126 -35 q 56 3 76 -19 q 36 56 36 25 q 60 114 36 90 q 118 138 83 138 q 171 118 147 138 z "},"-":{"ha":299,"x_min":24,"x_max":275,"o":"m 274 358 l 24 358 l 24 382 l 274 382 l 274 358 z "},".":{"ha":239,"x_min":38,"x_max":201,"o":"m 176 -1 q 165 -13 176 -1 q 119 -25 153 -25 q 61 -1 85 -25 q 38 56 38 22 q 61 114 38 90 q 119 138 85 138 q 176 114 153 138 q 200 56 200 90 q 176 -1 200 22 z "},"/":{"ha":606,"x_min":69,"x_max":538,"o":"m 517 1025 l 536 1025 l 90 -181 l 69 -181 l 517 1025 z "},":":{"ha":253,"x_min":39,"x_max":213,"o":"m 192 8 q 182 -6 192 8 q 139 -25 172 -19 q 78 -10 106 -31 q 46 43 51 10 q 60 103 40 76 q 113 136 79 131 q 174 122 146 142 q 207 69 201 103 q 192 8 213 36 m 189 474 q 178 460 189 474 q 134 444 168 447 q 74 463 100 442 q 45 518 49 485 q 63 577 42 551 q 118 606 85 603 q 178 588 151 610 q 207 533 204 567 q 189 474 210 500 z "},";":{"ha":271,"x_min":40,"x_max":231,"o":"m 183 468 q 172 456 183 468 q 126 444 160 444 q 68 468 92 444 q 44 526 44 492 q 68 583 44 560 q 126 607 92 607 q 183 583 160 607 q 207 526 207 560 q 183 468 207 492 m 186 118 q 224 42 218 92 q 213 -56 231 -8 q 153 -140 196 -104 q 53 -176 110 -175 q 50 -175 51 -176 q 44 -162 42 -172 q 50 -160 47 -158 q 90 -153 69 -162 q 126 -128 111 -144 q 148 -92 140 -111 q 149 -54 156 -74 q 121 -25 142 -35 q 72 3 92 -19 q 51 56 51 25 q 75 114 51 90 q 133 138 99 138 q 186 118 163 138 z "},"=":{"ha":518,"x_min":29,"x_max":489,"o":"m 488 403 l 29 403 l 29 428 l 488 428 l 488 403 m 488 599 l 29 599 l 29 622 l 488 622 l 488 599 z "},"?":{"ha":547,"x_min":35,"x_max":506,"o":"m 239 178 q 274 166 258 178 q 300 134 290 154 q 310 89 310 114 q 300 45 310 65 q 274 13 290 25 q 239 1 258 1 q 203 13 219 1 q 178 45 188 25 q 168 89 168 65 q 178 134 168 114 q 203 166 188 154 q 239 178 219 178 m 388 966 q 415 950 388 966 q 474 875 443 933 q 506 739 506 817 q 472 604 506 665 q 379 504 438 543 q 360 492 369 497 q 274 411 306 464 q 243 297 243 358 l 222 297 l 222 353 q 296 515 222 449 q 313 532 306 522 q 365 626 347 572 q 382 739 382 679 q 377 827 382 786 q 358 901 372 868 q 315 952 343 933 q 242 971 286 971 q 176 949 199 971 q 151 899 153 928 q 152 845 149 869 q 161 808 156 821 q 169 768 169 792 q 159 721 169 739 q 133 694 149 703 q 103 686 118 686 q 56 709 76 686 q 36 775 36 732 q 53 855 36 815 q 100 927 69 894 q 170 979 131 960 q 257 999 210 999 q 388 966 332 999 z "},"@":{"ha":1042,"x_min":51,"x_max":990,"o":"m 896 874 q 919 837 896 874 q 967 711 943 800 q 990 533 990 622 q 972 379 990 456 q 919 240 954 303 q 831 140 883 176 q 710 103 779 103 q 648 119 672 103 q 611 164 624 136 q 596 224 599 192 q 596 243 596 232 q 581 213 588 226 q 515 134 551 163 q 435 106 478 106 q 358 129 393 106 q 301 199 322 153 q 279 313 279 244 q 299 454 279 385 q 353 578 319 524 q 432 667 388 633 q 524 700 476 700 q 580 679 557 700 q 616 625 603 658 q 635 551 629 592 q 640 506 639 529 l 674 688 l 785 688 l 710 285 q 704 256 708 274 q 698 216 700 236 q 699 177 696 196 q 711 147 701 158 q 743 135 721 135 q 833 167 792 135 q 904 257 874 200 q 952 385 935 314 q 969 533 969 457 q 948 703 969 619 q 881 858 926 788 q 767 970 836 928 q 604 1013 699 1013 q 437 975 517 1013 q 291 870 357 938 q 176 712 225 803 q 99 513 126 621 q 72 288 72 404 q 103 40 72 140 q 185 -121 133 -60 q 300 -210 236 -182 q 431 -239 364 -239 q 581 -219 514 -239 q 701 -158 647 -199 q 799 -53 754 -117 l 813 -69 q 653 -214 747 -164 q 431 -264 558 -264 q 292 -235 360 -264 q 170 -141 225 -206 q 83 29 115 -76 q 51 288 51 135 q 79 520 51 408 q 158 726 107 632 q 278 891 208 821 q 430 999 347 961 q 604 1038 513 1038 q 776 993 703 1038 q 896 874 849 949 m 523 171 q 536 183 523 171 q 573 240 550 196 q 610 342 596 283 q 610 344 610 342 q 610 346 610 346 l 618 386 q 622 461 622 422 q 620 515 622 482 q 610 581 618 547 q 586 637 601 614 q 543 660 571 660 q 492 629 517 660 q 446 547 467 599 q 413 435 425 496 q 401 315 401 375 q 408 233 401 272 q 428 170 414 194 q 469 146 443 146 q 523 171 496 146 z "},"A":{"ha":725,"x_min":-15,"x_max":739,"o":"m 635 103 q 673 47 644 68 q 738 25 701 25 l 738 0 l 419 0 l 419 25 q 482 56 458 25 q 496 124 506 86 l 450 297 l 182 297 l 135 131 q 149 58 124 92 q 214 25 174 25 l 214 0 l -15 0 l -15 25 q 60 51 26 25 q 107 117 94 76 l 354 972 l 388 972 l 635 103 m 189 322 l 443 322 l 321 785 l 189 322 z "},"B":{"ha":657,"x_min":11,"x_max":628,"o":"m 381 500 q 438 484 408 494 q 501 453 467 474 q 563 406 536 432 q 609 340 590 381 q 628 251 628 299 q 607 153 628 197 q 555 81 586 108 q 485 35 524 54 q 413 8 446 15 q 350 0 379 0 l 13 0 l 13 25 q 79 53 51 25 q 107 119 107 81 l 107 853 q 79 919 107 892 q 13 947 51 947 l 13 972 l 329 972 q 389 967 358 972 q 458 947 419 963 q 526 906 497 931 q 576 837 556 882 q 596 732 596 792 q 576 629 596 674 q 522 559 556 585 q 454 519 489 533 q 381 500 419 506 m 224 947 l 224 513 l 324 513 q 349 516 333 513 q 388 533 365 519 q 429 569 411 547 q 461 629 447 590 q 475 719 475 668 q 461 820 475 776 q 429 887 447 864 q 388 924 411 910 q 350 943 365 939 q 324 947 335 947 l 224 947 m 333 25 q 363 29 346 25 q 408 49 381 33 q 456 90 435 65 q 492 163 476 115 q 508 272 508 211 q 492 364 508 324 q 455 426 476 404 q 408 463 433 449 q 364 483 382 478 q 333 488 346 488 l 224 488 l 224 25 l 333 25 z "},"C":{"ha":692,"x_min":31,"x_max":658,"o":"m 638 272 l 658 272 l 658 0 l 639 0 q 639 3 639 1 q 606 51 639 38 q 547 42 572 65 q 481 4 525 21 q 390 -12 438 -12 q 306 0 350 -12 q 213 48 263 13 q 123 138 163 83 q 57 282 83 192 q 31 486 31 372 q 60 697 31 604 q 131 842 89 790 q 227 928 174 894 q 323 974 281 963 q 400 986 365 986 q 535 926 463 986 q 595 920 561 904 q 629 971 629 936 q 629 974 629 972 l 647 974 l 647 701 l 626 701 q 606 764 624 724 q 561 850 589 804 q 490 928 533 896 q 400 961 446 961 q 359 952 383 961 q 300 912 335 943 q 237 833 265 881 q 188 694 208 785 q 167 486 167 603 q 185 314 167 394 q 230 180 203 233 q 290 87 257 126 q 351 30 322 47 q 400 13 379 13 q 492 36 450 13 q 558 93 533 60 q 602 165 583 126 q 628 231 621 204 q 638 272 636 257 z "},"D":{"ha":729,"x_min":13,"x_max":697,"o":"m 317 972 q 374 969 346 972 q 442 953 403 965 q 516 920 482 940 q 584 863 550 900 q 642 776 618 825 q 682 652 667 726 q 697 486 697 578 q 683 324 697 397 q 644 201 668 250 q 586 113 619 151 q 519 54 553 75 q 446 20 485 33 q 376 3 407 7 q 317 0 346 -1 l 13 0 l 13 25 q 79 53 51 25 q 107 119 107 81 l 107 853 q 79 919 107 892 q 13 947 51 947 l 13 972 l 317 972 m 317 25 q 345 28 329 25 q 387 43 361 32 q 436 73 413 54 q 485 127 460 92 q 530 209 511 163 q 560 327 549 256 q 572 486 572 399 q 549 675 572 590 q 494 808 526 760 q 424 890 463 857 q 359 935 386 924 q 317 947 332 947 l 224 947 l 224 25 l 317 25 z "},"E":{"ha":626,"x_min":11,"x_max":592,"o":"m 571 292 l 590 292 l 590 0 l 13 0 l 13 25 q 79 53 51 25 q 107 119 107 81 l 107 853 q 79 919 107 892 q 13 947 51 947 l 13 972 l 581 972 l 581 707 l 560 707 q 540 831 558 776 q 483 916 521 885 q 383 947 444 947 l 224 947 l 224 515 l 278 515 q 331 530 307 515 q 369 573 354 544 q 388 644 385 601 l 408 644 l 408 356 l 388 356 q 369 428 385 399 q 331 474 354 458 q 278 490 307 490 l 224 490 l 224 25 l 372 25 q 487 58 444 25 q 549 150 529 90 q 571 292 568 210 z "},"F":{"ha":576,"x_min":13,"x_max":569,"o":"m 13 972 l 569 972 l 569 707 l 549 707 q 528 831 546 776 q 473 916 510 885 q 375 947 436 947 l 224 947 l 224 496 l 263 496 q 335 509 307 496 q 378 549 364 522 q 394 619 392 576 l 415 619 l 415 340 l 394 340 q 378 413 392 383 q 335 456 364 442 q 263 471 307 471 l 224 471 l 224 119 q 251 53 224 81 q 318 25 279 25 l 318 0 l 13 0 l 13 25 q 79 53 51 25 q 107 119 107 81 l 107 947 l 13 947 l 13 972 z "},"G":{"ha":703,"x_min":31,"x_max":658,"o":"m 421 383 l 658 383 l 658 0 l 639 0 l 596 124 q 592 126 594 126 q 588 124 589 126 q 502 20 558 53 q 390 -12 446 -12 q 306 0 350 -12 q 213 48 263 13 q 123 138 163 83 q 57 282 83 192 q 31 486 31 372 q 60 697 31 604 q 131 842 89 790 q 227 928 174 894 q 323 974 281 963 q 400 986 365 986 q 535 926 463 986 q 595 920 561 904 q 629 971 629 936 q 629 974 629 972 l 647 974 l 647 701 l 626 701 q 606 764 624 724 q 561 850 589 804 q 490 928 533 896 q 400 961 446 961 q 359 952 383 961 q 300 912 335 943 q 237 833 265 881 q 188 694 208 785 q 167 486 167 603 q 185 314 167 394 q 230 180 203 233 q 290 87 257 126 q 351 30 322 47 q 400 13 379 13 q 481 31 443 13 q 518 64 504 42 q 532 113 532 86 l 532 356 l 421 356 l 421 383 z "},"H":{"ha":772,"x_min":13,"x_max":760,"o":"m 760 947 q 693 919 721 947 q 665 853 665 892 l 665 119 q 693 53 665 81 q 760 25 721 25 l 760 0 l 449 0 l 449 25 l 456 25 q 522 53 494 25 q 550 119 550 81 l 550 467 l 224 467 l 224 119 q 251 53 224 81 q 317 25 278 25 l 325 25 l 325 0 l 13 0 l 13 25 q 79 53 51 25 q 107 119 107 81 l 107 853 q 79 919 107 892 q 13 947 51 947 l 13 972 l 325 972 l 325 947 l 317 947 q 251 919 278 947 q 224 853 224 892 l 224 493 l 550 493 l 550 853 q 522 919 550 892 q 456 947 494 947 l 449 947 l 449 972 l 760 972 l 760 947 z "},"I":{"ha":368,"x_min":7,"x_max":364,"o":"m 353 947 q 272 913 306 947 q 239 832 239 879 l 239 140 q 272 59 239 93 q 353 25 306 25 l 364 25 l 364 0 l 7 0 l 7 25 q 88 59 54 25 q 122 140 122 93 l 122 832 q 88 913 122 879 q 7 947 54 947 l 7 972 l 364 972 l 364 947 l 353 947 z "},"J":{"ha":436,"x_min":-6,"x_max":432,"o":"m 103 972 l 431 972 l 431 947 q 357 917 388 947 q 326 843 326 886 l 326 200 q 311 100 326 143 q 276 36 296 57 q 228 3 256 15 q 186 -10 201 -8 q 156 -12 171 -12 q 63 24 103 -12 q 8 105 22 60 q 6 182 -6 150 q 6 183 6 182 l 7 183 q 31 217 14 204 q 71 229 49 229 q 119 210 99 229 q 139 161 139 190 q 131 129 139 144 q 121 110 131 129 q 103 69 111 90 q 105 31 96 49 q 146 13 114 13 q 211 192 211 13 l 211 843 q 181 917 211 886 q 107 947 150 947 l 103 947 l 103 972 z "},"K":{"ha":681,"x_min":13,"x_max":1033,"o":"m 1032 -82 q 1032 -85 1032 -83 q 995 -172 1032 -137 q 889 -207 958 -207 q 752 -177 815 -207 q 641 -96 689 -147 q 551 17 593 -44 q 474 148 510 79 q 408 276 439 217 q 342 388 376 336 q 274 464 307 440 q 268 468 272 465 l 224 396 l 224 119 q 251 53 224 81 q 318 25 279 25 l 318 0 l 13 0 l 13 25 q 79 53 51 25 q 107 119 107 81 l 107 853 q 79 919 107 892 q 13 947 51 947 l 13 972 l 318 972 l 318 947 q 251 919 279 947 q 224 853 224 892 l 224 444 l 256 496 l 265 513 l 478 851 q 479 915 497 883 q 425 947 461 947 l 425 972 l 675 972 l 675 947 q 579 922 624 947 q 508 854 535 897 l 296 511 l 282 490 l 289 490 q 290 490 290 490 q 397 451 346 489 q 487 352 447 413 q 565 219 526 292 q 642 73 604 146 q 720 -60 681 0 q 809 -157 760 -119 q 911 -194 858 -194 q 999 -140 979 -194 l 999 -139 q 964 -149 982 -149 q 915 -129 935 -149 q 894 -82 894 -110 q 915 -34 894 -54 q 964 -14 935 -14 q 985 -17 974 -14 l 985 -17 q 998 -22 990 -18 q 1018 -40 1006 -25 q 1032 -74 1031 -54 q 1032 -76 1032 -75 q 1032 -78 1032 -78 q 1032 -82 1032 -81 z "},"L":{"ha":594,"x_min":13,"x_max":588,"o":"m 565 292 l 586 292 l 586 0 l 13 0 l 13 25 l 14 25 q 80 53 53 25 q 107 118 107 81 l 107 854 q 80 919 107 892 q 14 947 53 947 l 13 947 l 13 972 l 317 972 l 317 947 q 251 919 278 947 q 224 854 224 892 l 224 25 l 368 25 q 466 44 428 25 q 525 97 504 63 q 555 181 546 132 q 565 292 564 231 z "},"M":{"ha":899,"x_min":17,"x_max":879,"o":"m 879 947 q 827 926 849 947 q 806 874 806 904 l 806 99 q 827 47 806 68 q 879 25 849 25 l 879 0 l 617 0 l 617 25 q 669 47 647 25 q 690 99 690 68 l 690 883 q 682 893 690 892 q 672 886 674 894 l 422 -12 l 397 -12 l 136 875 q 126 882 133 883 q 118 872 118 881 l 118 100 q 140 47 118 69 q 192 25 161 25 l 194 25 l 194 0 l 22 0 l 22 25 q 74 47 53 25 q 96 100 96 69 l 96 874 q 74 926 96 904 q 22 947 53 947 l 17 947 l 17 972 l 225 972 l 457 193 l 674 972 l 879 972 l 879 947 z "},"N":{"ha":751,"x_min":8,"x_max":743,"o":"m 532 972 l 743 972 l 743 947 q 676 919 704 947 q 649 853 649 892 l 649 -12 l 619 -12 l 183 851 q 155 864 174 868 q 136 840 136 860 l 136 132 q 167 56 136 88 q 243 25 199 25 l 244 25 l 244 0 l 8 0 l 8 25 q 84 56 53 25 q 115 132 115 88 l 115 840 q 84 916 115 885 q 8 947 53 947 l 8 972 l 263 972 l 581 331 q 608 318 589 314 q 628 342 628 322 l 628 853 q 600 919 628 892 q 532 947 572 947 l 532 972 z "},"O":{"ha":736,"x_min":29,"x_max":707,"o":"m 198 918 q 237 951 198 918 q 368 985 276 985 q 538 918 460 985 q 662 737 617 851 q 707 486 707 622 q 662 235 707 350 q 538 54 617 121 q 368 -12 460 -12 q 198 54 276 -12 q 74 235 119 121 q 29 486 29 350 q 74 737 29 622 q 198 918 119 851 m 258 76 q 283 44 258 76 q 368 13 308 13 q 478 76 428 13 q 557 249 528 139 q 586 487 586 358 q 557 725 586 615 q 478 898 528 835 q 368 961 428 961 q 258 898 308 961 q 179 725 208 835 q 150 487 150 615 q 179 249 150 358 q 258 76 208 139 z "},"P":{"ha":624,"x_min":13,"x_max":611,"o":"m 491 938 q 521 920 491 938 q 581 840 551 903 q 610 693 610 778 q 581 548 610 608 q 491 454 551 488 q 335 421 431 421 l 224 421 l 224 118 q 251 53 224 81 q 317 25 278 25 l 317 0 l 13 0 l 13 25 l 14 25 q 80 53 53 25 q 107 118 107 81 l 107 854 q 80 919 107 892 q 14 947 53 947 l 13 947 l 13 972 l 335 972 q 491 938 431 972 m 440 526 q 449 544 440 526 q 468 606 458 563 q 478 693 478 650 q 468 781 478 736 q 440 864 458 826 q 393 924 421 901 q 329 947 365 947 l 224 947 l 224 446 l 329 446 q 393 468 365 446 q 440 526 421 490 z "},"Q":{"ha":743,"x_min":29,"x_max":1058,"o":"m 1058 -82 l 1058 -82 q 1058 -85 1058 -83 q 1020 -172 1057 -137 q 914 -207 983 -207 q 805 -183 856 -207 q 713 -115 754 -160 q 640 -22 671 -69 q 575 92 608 26 q 368 -12 485 -12 q 198 54 276 -12 q 74 235 119 121 q 29 486 29 350 q 74 737 29 622 q 198 918 119 851 q 368 985 276 985 q 538 918 460 985 q 662 737 617 851 q 707 486 707 622 q 624 160 707 300 q 633 142 628 154 q 671 69 658 94 q 708 2 683 44 q 749 -62 732 -40 q 790 -115 765 -85 q 835 -159 814 -144 q 882 -184 856 -174 q 936 -194 908 -194 q 1024 -140 1004 -194 l 1024 -139 q 989 -149 1008 -149 q 940 -129 960 -149 q 919 -82 919 -110 q 940 -34 919 -54 q 989 -14 960 -14 q 1010 -17 1000 -14 l 1010 -17 q 1023 -22 1015 -18 q 1043 -40 1031 -25 q 1057 -74 1056 -54 q 1058 -76 1057 -75 q 1058 -78 1058 -78 q 1058 -82 1058 -81 m 563 274 q 586 486 586 374 q 557 725 586 615 q 478 898 528 835 q 368 961 428 961 q 258 898 308 961 q 179 725 208 835 q 150 487 150 615 q 179 249 150 358 q 258 76 208 139 q 368 13 308 13 q 460 57 417 13 q 535 179 503 101 q 517 217 529 190 q 500 254 506 243 q 484 288 494 265 q 467 323 474 311 q 451 353 461 335 q 434 383 442 372 q 417 408 426 394 q 399 432 408 422 q 382 450 390 442 q 388 422 388 436 q 367 374 388 394 q 319 354 347 354 q 270 374 290 354 q 250 422 250 394 q 270 470 250 450 q 318 490 290 490 q 326 489 322 490 q 450 428 393 485 q 563 274 507 372 z "},"R":{"ha":724,"x_min":7,"x_max":1074,"o":"m 1072 -81 l 1072 -81 q 1072 -85 1072 -83 q 1034 -172 1071 -137 q 929 -207 997 -207 q 788 -172 856 -207 q 669 -79 721 -136 q 571 47 618 -22 q 485 187 524 115 q 415 319 447 258 q 353 425 383 381 q 297 479 322 469 l 236 479 l 236 138 q 269 58 236 92 q 347 25 301 25 l 347 0 l 7 0 l 7 25 q 86 58 53 25 q 119 138 119 92 l 119 835 q 86 915 119 882 q 7 947 53 947 l 7 972 l 357 972 q 406 967 378 972 q 475 944 435 961 q 548 902 515 928 q 603 831 581 876 q 626 725 626 785 q 606 633 626 675 q 556 565 586 590 q 489 522 526 540 q 422 495 451 503 q 368 486 393 488 q 463 428 417 472 q 547 323 510 383 q 620 192 583 263 q 694 53 657 121 q 769 -69 731 -14 q 853 -160 807 -125 q 950 -194 900 -194 q 1039 -139 1018 -194 q 1003 -149 1022 -149 q 955 -128 975 -149 q 935 -81 935 -108 q 955 -33 935 -53 q 1003 -12 975 -12 q 1025 -17 1014 -12 q 1038 -22 1031 -18 q 1058 -39 1046 -25 q 1072 -72 1071 -53 q 1072 -75 1072 -74 q 1072 -76 1072 -75 q 1072 -81 1072 -79 m 236 506 l 350 506 q 388 516 365 506 q 439 549 411 526 q 486 617 467 571 q 506 725 506 664 q 486 828 506 782 q 440 898 467 874 q 388 935 413 922 q 350 947 364 947 l 236 947 l 236 506 z "},"S":{"ha":574,"x_min":38,"x_max":539,"o":"m 128 818 q 145 749 128 783 q 192 687 163 714 q 258 629 221 660 q 333 571 294 599 q 409 508 372 543 q 474 435 446 472 q 521 347 503 397 q 539 243 539 297 q 516 118 539 171 q 455 38 493 65 q 378 -1 417 11 q 299 -12 339 -12 q 231 -2 263 -12 q 186 18 200 8 q 150 46 172 28 q 90 53 124 68 q 56 3 57 38 q 56 0 56 1 l 38 0 l 38 272 l 58 272 q 79 209 61 250 q 126 123 97 168 q 197 45 154 78 q 285 13 240 13 q 338 19 310 13 q 394 42 365 26 q 441 89 422 57 q 460 164 460 121 q 442 236 460 200 q 394 303 424 272 q 328 368 365 333 q 251 433 290 403 q 175 501 213 464 q 108 574 138 538 q 61 653 79 610 q 43 742 43 697 q 63 856 43 807 q 108 928 82 904 q 169 966 135 951 q 224 983 204 981 q 263 986 244 986 q 265 986 264 986 q 265 986 265 986 q 267 986 265 986 q 400 926 329 986 q 460 920 426 904 q 496 971 494 936 q 496 974 496 972 l 514 974 l 514 701 l 493 701 q 473 764 490 724 q 428 849 456 804 q 358 926 401 893 q 269 961 315 960 q 165 919 201 960 q 128 818 128 878 z "},"T":{"ha":668,"x_min":8,"x_max":660,"o":"m 8 972 l 658 972 l 658 675 l 638 675 q 631 736 638 699 q 608 825 624 774 q 560 912 593 876 q 485 947 528 947 l 392 947 l 392 140 q 425 59 392 93 q 507 25 458 25 l 507 0 l 161 0 l 161 25 q 242 59 208 25 q 275 140 275 93 l 275 947 l 182 947 q 106 912 139 947 q 59 826 74 876 q 38 737 44 775 q 29 675 31 699 l 8 675 l 8 972 z "},"U":{"ha":713,"x_min":7,"x_max":708,"o":"m 494 972 l 707 972 l 707 947 l 703 947 q 637 919 664 947 q 610 853 610 892 l 610 299 q 551 60 610 139 q 367 -18 492 -18 q 165 56 228 -18 q 101 299 101 131 l 101 853 q 74 919 101 892 q 7 947 46 947 l 7 972 l 322 972 l 322 947 l 311 947 q 245 919 272 947 q 218 853 218 892 l 218 311 q 225 193 218 247 q 251 99 232 139 q 304 35 269 58 q 393 13 339 13 q 499 42 456 13 q 566 134 543 71 q 589 299 589 197 l 589 853 q 562 919 589 892 q 496 947 535 947 l 494 947 l 494 972 z "},"V":{"ha":728,"x_min":-14,"x_max":743,"o":"m 501 972 l 742 972 l 742 947 q 669 923 701 947 q 626 860 638 899 l 374 -18 l 336 -18 l 88 871 q 49 926 78 904 q -14 947 21 947 l -14 972 l 308 972 l 308 947 q 243 915 268 947 q 228 843 218 882 l 404 164 l 593 825 q 577 909 606 871 q 501 947 549 947 l 501 972 z "},"W":{"ha":1006,"x_min":-15,"x_max":1021,"o":"m 815 972 l 1021 972 l 1021 947 q 952 924 982 947 q 913 865 922 901 l 663 -12 l 632 -12 l 507 468 l 367 -12 l 332 -12 l 106 854 q 61 921 94 894 q -15 947 28 947 l -15 972 l 315 972 l 315 947 q 250 915 275 947 q 235 843 225 882 l 403 194 l 494 511 l 393 900 q 371 934 388 921 q 333 947 354 947 l 333 972 l 556 972 l 556 947 q 524 931 536 947 q 517 896 511 915 l 574 672 l 626 860 q 615 920 635 893 q 560 947 594 947 l 560 972 l 764 972 l 764 947 q 692 923 724 947 q 650 861 661 899 l 585 629 l 697 194 l 886 854 q 874 918 896 889 q 815 947 851 947 l 815 972 z "},"X":{"ha":733,"x_min":-10,"x_max":743,"o":"m 743 25 l 743 0 l 428 0 l 428 25 q 478 53 461 25 q 482 110 496 81 l 326 443 l 163 129 q 164 60 143 94 q 225 25 185 25 l 225 0 l -8 0 l -8 25 q 69 47 33 25 q 125 106 106 69 l 314 468 l 121 879 q 78 928 107 910 q 15 947 50 947 l 15 972 l 324 972 l 324 947 q 272 919 290 947 q 269 860 254 890 l 396 592 l 522 846 q 519 914 540 881 q 460 947 499 947 l 460 972 l 686 972 l 686 947 q 610 926 644 947 q 557 867 575 904 l 408 567 l 631 97 q 676 44 646 64 q 743 25 707 25 z "},"Y":{"ha":690,"x_min":-17,"x_max":707,"o":"m 492 972 l 706 972 l 706 947 q 638 927 669 947 q 592 875 607 907 l 413 496 l 413 119 q 440 53 413 81 q 507 25 468 25 l 507 0 l 203 0 l 203 25 q 269 53 242 25 q 296 119 296 81 l 296 468 l 97 876 q 50 928 81 908 q -17 947 19 947 l -17 972 l 303 972 l 303 947 q 246 916 265 947 q 243 851 226 885 l 401 519 l 556 849 q 551 915 571 883 q 492 947 531 947 l 492 972 z "},"Z":{"ha":583,"x_min":15,"x_max":563,"o":"m 540 251 l 561 251 l 561 0 l 15 0 l 15 25 l 424 947 l 244 947 q 135 926 174 947 q 79 860 96 904 q 60 747 63 817 l 39 747 l 39 972 l 554 972 l 554 947 l 144 25 l 356 25 q 467 48 428 25 q 522 120 506 71 q 540 251 538 169 z "},"[":{"ha":236,"x_min":63,"x_max":322,"o":"m 322 999 l 174 999 l 174 -156 l 322 -156 l 322 -181 l 63 -181 l 63 1025 l 322 1025 l 322 999 z "},"\\":{"ha":606,"x_min":69,"x_max":536,"o":"m 93 1025 l 536 -181 l 513 -181 l 69 1025 l 93 1025 z "},"]":{"ha":238,"x_min":-85,"x_max":175,"o":"m -85 1025 l 175 1025 l 175 -182 l -85 -182 l -85 -154 l 63 -154 l 63 1000 l -85 1000 l -85 1025 z "},"^":{"ha":425,"x_min":31,"x_max":393,"o":"m 244 1011 l 392 831 l 381 815 l 211 950 l 44 815 l 32 831 l 178 1011 l 244 1011 z "},"_":{"ha":719,"x_min":63,"x_max":657,"o":"m 657 -193 l 63 -193 l 63 -168 l 657 -168 l 657 -193 z "},"a":{"ha":725,"x_min":-15,"x_max":739,"o":"m 635 103 q 673 47 644 68 q 738 25 701 25 l 738 0 l 419 0 l 419 25 q 482 56 458 25 q 496 124 506 86 l 450 297 l 182 297 l 135 131 q 149 58 124 92 q 214 25 174 25 l 214 0 l -15 0 l -15 25 q 60 51 26 25 q 107 117 94 76 l 354 972 l 388 972 l 635 103 m 189 322 l 443 322 l 321 785 l 189 322 z "},"b":{"ha":657,"x_min":11,"x_max":628,"o":"m 381 500 q 438 484 408 494 q 501 453 467 474 q 563 406 536 432 q 609 340 590 381 q 628 251 628 299 q 607 153 628 197 q 555 81 586 108 q 485 35 524 54 q 413 8 446 15 q 350 0 379 0 l 13 0 l 13 25 q 79 53 51 25 q 107 119 107 81 l 107 853 q 79 919 107 892 q 13 947 51 947 l 13 972 l 329 972 q 389 967 358 972 q 458 947 419 963 q 526 906 497 931 q 576 837 556 882 q 596 732 596 792 q 576 629 596 674 q 522 559 556 585 q 454 519 489 533 q 381 500 419 506 m 224 947 l 224 513 l 324 513 q 349 516 333 513 q 388 533 365 519 q 429 569 411 547 q 461 629 447 590 q 475 719 475 668 q 461 820 475 776 q 429 887 447 864 q 388 924 411 910 q 350 943 365 939 q 324 947 335 947 l 224 947 m 333 25 q 363 29 346 25 q 408 49 381 33 q 456 90 435 65 q 492 163 476 115 q 508 272 508 211 q 492 364 508 324 q 455 426 476 404 q 408 463 433 449 q 364 483 382 478 q 333 488 346 488 l 224 488 l 224 25 l 333 25 z "},"c":{"ha":692,"x_min":31,"x_max":658,"o":"m 638 272 l 658 272 l 658 0 l 639 0 q 639 3 639 1 q 606 51 639 38 q 547 42 572 65 q 481 4 525 21 q 390 -12 438 -12 q 306 0 350 -12 q 213 48 263 13 q 123 138 163 83 q 57 282 83 192 q 31 486 31 372 q 60 697 31 604 q 131 842 89 790 q 227 928 174 894 q 323 974 281 963 q 400 986 365 986 q 535 926 463 986 q 595 920 561 904 q 629 971 629 936 q 629 974 629 972 l 647 974 l 647 701 l 626 701 q 606 764 624 724 q 561 850 589 804 q 490 928 533 896 q 400 961 446 961 q 359 952 383 961 q 300 912 335 943 q 237 833 265 881 q 188 694 208 785 q 167 486 167 603 q 185 314 167 394 q 230 180 203 233 q 290 87 257 126 q 351 30 322 47 q 400 13 379 13 q 492 36 450 13 q 558 93 533 60 q 602 165 583 126 q 628 231 621 204 q 638 272 636 257 z "},"d":{"ha":729,"x_min":13,"x_max":697,"o":"m 317 972 q 374 969 346 972 q 442 953 403 965 q 516 920 482 940 q 584 863 550 900 q 642 776 618 825 q 682 652 667 726 q 697 486 697 578 q 683 324 697 397 q 644 201 668 250 q 586 113 619 151 q 519 54 553 75 q 446 20 485 33 q 376 3 407 7 q 317 0 346 -1 l 13 0 l 13 25 q 79 53 51 25 q 107 119 107 81 l 107 853 q 79 919 107 892 q 13 947 51 947 l 13 972 l 317 972 m 317 25 q 345 28 329 25 q 387 43 361 32 q 436 73 413 54 q 485 127 460 92 q 530 209 511 163 q 560 327 549 256 q 572 486 572 399 q 549 675 572 590 q 494 808 526 760 q 424 890 463 857 q 359 935 386 924 q 317 947 332 947 l 224 947 l 224 25 l 317 25 z "},"e":{"ha":626,"x_min":11,"x_max":592,"o":"m 571 292 l 590 292 l 590 0 l 13 0 l 13 25 q 79 53 51 25 q 107 119 107 81 l 107 853 q 79 919 107 892 q 13 947 51 947 l 13 972 l 581 972 l 581 707 l 560 707 q 540 831 558 776 q 483 916 521 885 q 383 947 444 947 l 224 947 l 224 515 l 278 515 q 331 530 307 515 q 369 573 354 544 q 388 644 385 601 l 408 644 l 408 356 l 388 356 q 369 428 385 399 q 331 474 354 458 q 278 490 307 490 l 224 490 l 224 25 l 372 25 q 487 58 444 25 q 549 150 529 90 q 571 292 568 210 z "},"f":{"ha":576,"x_min":13,"x_max":569,"o":"m 13 972 l 569 972 l 569 707 l 549 707 q 528 831 546 776 q 473 916 510 885 q 375 947 436 947 l 224 947 l 224 496 l 263 496 q 335 509 307 496 q 378 549 364 522 q 394 619 392 576 l 415 619 l 415 340 l 394 340 q 378 413 392 383 q 335 456 364 442 q 263 471 307 471 l 224 471 l 224 119 q 251 53 224 81 q 318 25 279 25 l 318 0 l 13 0 l 13 25 q 79 53 51 25 q 107 119 107 81 l 107 947 l 13 947 l 13 972 z "},"g":{"ha":703,"x_min":31,"x_max":658,"o":"m 421 383 l 658 383 l 658 0 l 639 0 l 596 124 q 592 126 594 126 q 588 124 589 126 q 502 20 558 53 q 390 -12 446 -12 q 306 0 350 -12 q 213 48 263 13 q 123 138 163 83 q 57 282 83 192 q 31 486 31 372 q 60 697 31 604 q 131 842 89 790 q 227 928 174 894 q 323 974 281 963 q 400 986 365 986 q 535 926 463 986 q 595 920 561 904 q 629 971 629 936 q 629 974 629 972 l 647 974 l 647 701 l 626 701 q 606 764 624 724 q 561 850 589 804 q 490 928 533 896 q 400 961 446 961 q 359 952 383 961 q 300 912 335 943 q 237 833 265 881 q 188 694 208 785 q 167 486 167 603 q 185 314 167 394 q 230 180 203 233 q 290 87 257 126 q 351 30 322 47 q 400 13 379 13 q 481 31 443 13 q 518 64 504 42 q 532 113 532 86 l 532 356 l 421 356 l 421 383 z "},"h":{"ha":772,"x_min":13,"x_max":760,"o":"m 760 947 q 693 919 721 947 q 665 853 665 892 l 665 119 q 693 53 665 81 q 760 25 721 25 l 760 0 l 449 0 l 449 25 l 456 25 q 522 53 494 25 q 550 119 550 81 l 550 467 l 224 467 l 224 119 q 251 53 224 81 q 317 25 278 25 l 325 25 l 325 0 l 13 0 l 13 25 q 79 53 51 25 q 107 119 107 81 l 107 853 q 79 919 107 892 q 13 947 51 947 l 13 972 l 325 972 l 325 947 l 317 947 q 251 919 278 947 q 224 853 224 892 l 224 493 l 550 493 l 550 853 q 522 919 550 892 q 456 947 494 947 l 449 947 l 449 972 l 760 972 l 760 947 z "},"i":{"ha":368,"x_min":7,"x_max":364,"o":"m 353 947 q 272 913 306 947 q 239 832 239 879 l 239 140 q 272 59 239 93 q 353 25 306 25 l 364 25 l 364 0 l 7 0 l 7 25 q 88 59 54 25 q 122 140 122 93 l 122 832 q 88 913 122 879 q 7 947 54 947 l 7 972 l 364 972 l 364 947 l 353 947 z "},"j":{"ha":436,"x_min":-6,"x_max":432,"o":"m 103 972 l 431 972 l 431 947 q 357 917 388 947 q 326 843 326 886 l 326 200 q 311 100 326 143 q 276 36 296 57 q 228 3 256 15 q 186 -10 201 -8 q 156 -12 171 -12 q 63 24 103 -12 q 8 105 22 60 q 6 182 -6 150 q 6 183 6 182 l 7 183 q 31 217 14 204 q 71 229 49 229 q 119 210 99 229 q 139 161 139 190 q 131 129 139 144 q 121 110 131 129 q 103 69 111 90 q 105 31 96 49 q 146 13 114 13 q 211 192 211 13 l 211 843 q 181 917 211 886 q 107 947 150 947 l 103 947 l 103 972 z "},"k":{"ha":681,"x_min":13,"x_max":1033,"o":"m 1032 -82 q 1032 -85 1032 -83 q 995 -172 1032 -137 q 889 -207 958 -207 q 752 -177 815 -207 q 641 -96 689 -147 q 551 17 593 -44 q 474 148 510 79 q 408 276 439 217 q 342 388 376 336 q 274 464 307 440 q 268 468 272 465 l 224 396 l 224 119 q 251 53 224 81 q 318 25 279 25 l 318 0 l 13 0 l 13 25 q 79 53 51 25 q 107 119 107 81 l 107 853 q 79 919 107 892 q 13 947 51 947 l 13 972 l 318 972 l 318 947 q 251 919 279 947 q 224 853 224 892 l 224 444 l 256 496 l 265 513 l 478 851 q 479 915 497 883 q 425 947 461 947 l 425 972 l 675 972 l 675 947 q 579 922 624 947 q 508 854 535 897 l 296 511 l 282 490 l 289 490 q 290 490 290 490 q 397 451 346 489 q 487 352 447 413 q 565 219 526 292 q 642 73 604 146 q 720 -60 681 0 q 809 -157 760 -119 q 911 -194 858 -194 q 999 -140 979 -194 l 999 -139 q 964 -149 982 -149 q 915 -129 935 -149 q 894 -82 894 -110 q 915 -34 894 -54 q 964 -14 935 -14 q 985 -17 974 -14 l 985 -17 q 998 -22 990 -18 q 1018 -40 1006 -25 q 1032 -74 1031 -54 q 1032 -76 1032 -75 q 1032 -78 1032 -78 q 1032 -82 1032 -81 z "},"l":{"ha":594,"x_min":13,"x_max":588,"o":"m 565 292 l 586 292 l 586 0 l 13 0 l 13 25 l 14 25 q 80 53 53 25 q 107 118 107 81 l 107 854 q 80 919 107 892 q 14 947 53 947 l 13 947 l 13 972 l 317 972 l 317 947 q 251 919 278 947 q 224 854 224 892 l 224 25 l 368 25 q 466 44 428 25 q 525 97 504 63 q 555 181 546 132 q 565 292 564 231 z "},"m":{"ha":899,"x_min":17,"x_max":879,"o":"m 879 947 q 827 926 849 947 q 806 874 806 904 l 806 99 q 827 47 806 68 q 879 25 849 25 l 879 0 l 617 0 l 617 25 q 669 47 647 25 q 690 99 690 68 l 690 883 q 682 893 690 892 q 672 886 674 894 l 422 -12 l 397 -12 l 136 875 q 126 882 133 883 q 118 872 118 881 l 118 100 q 140 47 118 69 q 192 25 161 25 l 194 25 l 194 0 l 22 0 l 22 25 q 74 47 53 25 q 96 100 96 69 l 96 874 q 74 926 96 904 q 22 947 53 947 l 17 947 l 17 972 l 225 972 l 457 193 l 674 972 l 879 972 l 879 947 z "},"n":{"ha":751,"x_min":8,"x_max":743,"o":"m 532 972 l 743 972 l 743 947 q 676 919 704 947 q 649 853 649 892 l 649 -12 l 619 -12 l 183 851 q 155 864 174 868 q 136 840 136 860 l 136 132 q 167 56 136 88 q 243 25 199 25 l 244 25 l 244 0 l 8 0 l 8 25 q 84 56 53 25 q 115 132 115 88 l 115 840 q 84 916 115 885 q 8 947 53 947 l 8 972 l 263 972 l 581 331 q 608 318 589 314 q 628 342 628 322 l 628 853 q 600 919 628 892 q 532 947 572 947 l 532 972 z "},"o":{"ha":736,"x_min":29,"x_max":707,"o":"m 198 918 q 237 951 198 918 q 368 985 276 985 q 538 918 460 985 q 662 737 617 851 q 707 486 707 622 q 662 235 707 350 q 538 54 617 121 q 368 -12 460 -12 q 198 54 276 -12 q 74 235 119 121 q 29 486 29 350 q 74 737 29 622 q 198 918 119 851 m 258 76 q 283 44 258 76 q 368 13 308 13 q 478 76 428 13 q 557 249 528 139 q 586 487 586 358 q 557 725 586 615 q 478 898 528 835 q 368 961 428 961 q 258 898 308 961 q 179 725 208 835 q 150 487 150 615 q 179 249 150 358 q 258 76 208 139 z "},"p":{"ha":624,"x_min":13,"x_max":611,"o":"m 491 938 q 521 920 491 938 q 581 840 551 903 q 610 693 610 778 q 581 548 610 608 q 491 454 551 488 q 335 421 431 421 l 224 421 l 224 118 q 251 53 224 81 q 317 25 278 25 l 317 0 l 13 0 l 13 25 l 14 25 q 80 53 53 25 q 107 118 107 81 l 107 854 q 80 919 107 892 q 14 947 53 947 l 13 947 l 13 972 l 335 972 q 491 938 431 972 m 440 526 q 449 544 440 526 q 468 606 458 563 q 478 693 478 650 q 468 781 478 736 q 440 864 458 826 q 393 924 421 901 q 329 947 365 947 l 224 947 l 224 446 l 329 446 q 393 468 365 446 q 440 526 421 490 z "},"q":{"ha":743,"x_min":28,"x_max":1058,"o":"m 1058 -82 q 1058 -85 1058 -83 q 1020 -172 1057 -137 q 914 -207 983 -207 q 805 -183 856 -207 q 713 -115 754 -160 q 640 -22 671 -69 q 575 92 608 26 q 368 -12 485 -12 q 198 54 276 -12 q 74 235 119 121 q 29 486 29 350 q 74 737 29 622 q 198 918 119 851 q 368 985 276 985 q 538 918 460 985 q 662 737 617 851 q 707 486 707 622 q 624 160 707 300 q 633 142 628 154 q 671 69 658 94 q 708 2 683 44 q 749 -62 732 -40 q 790 -115 765 -85 q 835 -159 814 -144 q 882 -184 856 -174 q 936 -194 908 -194 q 1024 -140 1004 -194 l 1024 -139 q 989 -149 1008 -149 q 940 -129 960 -149 q 919 -82 919 -110 q 940 -34 919 -54 q 989 -14 960 -14 q 1010 -17 1000 -14 l 1010 -17 q 1023 -22 1015 -18 q 1043 -40 1031 -25 q 1057 -74 1056 -54 q 1058 -76 1058 -75 q 1058 -78 1058 -78 q 1058 -82 1058 -81 m 368 13 q 460 57 417 13 q 535 179 503 101 q 517 217 529 190 q 500 254 506 243 q 484 288 494 265 q 467 323 474 311 q 451 353 461 335 q 434 383 442 372 q 417 408 426 394 q 399 432 408 422 q 382 450 390 442 q 388 422 388 436 q 367 374 388 394 q 319 354 347 354 q 270 374 290 354 q 250 422 250 394 q 270 470 250 450 q 318 490 290 490 q 326 489 322 490 q 450 428 393 485 q 563 274 507 372 q 586 486 586 374 q 557 725 586 615 q 478 898 528 835 q 368 961 428 961 q 258 898 308 961 q 179 725 208 835 q 150 487 150 615 q 179 249 150 358 q 258 76 208 139 q 368 13 308 13 z "},"r":{"ha":724,"x_min":6,"x_max":1074,"o":"m 1072 -81 l 1072 -81 q 1072 -85 1072 -83 q 1034 -172 1071 -137 q 929 -207 997 -207 q 788 -172 856 -207 q 669 -79 721 -136 q 571 47 618 -22 q 485 187 524 115 q 415 319 447 258 q 353 425 383 381 q 297 479 322 469 l 236 479 l 236 138 q 269 58 236 92 q 347 25 301 25 l 347 0 l 7 0 l 7 25 q 86 58 53 25 q 119 138 119 92 l 119 835 q 86 915 119 882 q 7 947 53 947 l 7 972 l 357 972 q 406 967 378 972 q 475 944 435 961 q 548 902 515 928 q 603 831 581 876 q 626 725 626 785 q 606 633 626 675 q 556 565 586 590 q 489 522 526 540 q 422 495 451 503 q 368 486 393 488 q 463 428 417 472 q 547 323 510 383 q 620 192 583 263 q 694 53 657 121 q 769 -69 731 -14 q 853 -160 807 -125 q 950 -194 900 -194 q 1039 -139 1018 -194 q 1003 -149 1022 -149 q 955 -128 975 -149 q 935 -81 935 -108 q 955 -33 935 -53 q 1003 -12 975 -12 q 1025 -17 1014 -12 q 1038 -22 1031 -18 q 1058 -39 1046 -25 q 1072 -72 1071 -53 q 1072 -75 1072 -74 q 1072 -76 1072 -75 q 1072 -81 1072 -79 m 236 947 l 236 506 l 350 506 q 388 516 365 506 q 439 549 411 526 q 486 617 467 571 q 506 725 506 664 q 486 828 506 782 q 440 898 467 874 q 388 935 413 922 q 350 947 364 947 l 236 947 z "},"s":{"ha":574,"x_min":38,"x_max":539,"o":"m 128 818 q 145 749 128 783 q 192 687 163 714 q 258 629 221 660 q 333 571 294 599 q 409 508 372 543 q 474 435 446 472 q 521 347 503 397 q 539 243 539 297 q 516 118 539 171 q 455 38 493 65 q 378 -1 417 11 q 299 -12 339 -12 q 231 -2 263 -12 q 186 18 200 8 q 150 46 172 28 q 90 53 124 68 q 56 3 57 38 q 56 0 56 1 l 38 0 l 38 272 l 58 272 q 79 209 61 250 q 126 123 97 168 q 197 45 154 78 q 285 13 240 13 q 338 19 310 13 q 394 42 365 26 q 441 89 422 57 q 460 164 460 121 q 442 236 460 200 q 394 303 424 272 q 328 368 365 333 q 251 433 290 403 q 175 501 213 464 q 108 574 138 538 q 61 653 79 610 q 43 742 43 697 q 63 856 43 807 q 108 928 82 904 q 169 966 135 951 q 224 983 204 981 q 263 986 244 986 q 265 986 264 986 q 265 986 265 986 q 267 986 265 986 q 400 926 329 986 q 460 920 426 904 q 496 971 494 936 q 496 974 496 972 l 514 974 l 514 701 l 493 701 q 473 764 490 724 q 428 849 456 804 q 358 926 401 893 q 269 961 315 960 q 165 919 201 960 q 128 818 128 878 z "},"t":{"ha":668,"x_min":8,"x_max":660,"o":"m 8 972 l 658 972 l 658 675 l 638 675 q 631 736 638 699 q 608 825 624 774 q 560 912 593 876 q 485 947 528 947 l 392 947 l 392 140 q 425 59 392 93 q 507 25 458 25 l 507 0 l 161 0 l 161 25 q 242 59 208 25 q 275 140 275 93 l 275 947 l 182 947 q 106 912 139 947 q 59 826 74 876 q 38 737 44 775 q 29 675 31 699 l 8 675 l 8 972 z "},"u":{"ha":713,"x_min":7,"x_max":708,"o":"m 494 972 l 707 972 l 707 947 l 703 947 q 637 919 664 947 q 610 853 610 892 l 610 299 q 551 60 610 139 q 367 -18 492 -18 q 165 56 228 -18 q 101 299 101 131 l 101 853 q 74 919 101 892 q 7 947 46 947 l 7 972 l 322 972 l 322 947 l 311 947 q 245 919 272 947 q 218 853 218 892 l 218 311 q 225 193 218 247 q 251 99 232 139 q 304 35 269 58 q 393 13 339 13 q 499 42 456 13 q 566 134 543 71 q 589 299 589 197 l 589 853 q 562 919 589 892 q 496 947 535 947 l 494 947 l 494 972 z "},"v":{"ha":728,"x_min":-14,"x_max":743,"o":"m 501 972 l 742 972 l 742 947 q 669 923 701 947 q 626 860 638 899 l 374 -18 l 336 -18 l 88 871 q 49 926 78 904 q -14 947 21 947 l -14 972 l 308 972 l 308 947 q 243 915 268 947 q 228 843 218 882 l 404 164 l 593 825 q 577 909 606 871 q 501 947 549 947 l 501 972 z "},"w":{"ha":1006,"x_min":-15,"x_max":1021,"o":"m 815 972 l 1021 972 l 1021 947 q 952 924 982 947 q 913 865 922 901 l 663 -12 l 632 -12 l 507 468 l 367 -12 l 332 -12 l 106 854 q 61 921 94 894 q -15 947 28 947 l -15 972 l 315 972 l 315 947 q 250 915 275 947 q 235 843 225 882 l 403 194 l 494 511 l 393 900 q 371 934 388 921 q 333 947 354 947 l 333 972 l 556 972 l 556 947 q 524 931 536 947 q 517 896 511 915 l 574 672 l 626 860 q 615 920 635 893 q 560 947 594 947 l 560 972 l 764 972 l 764 947 q 692 923 724 947 q 650 861 661 899 l 585 629 l 697 194 l 886 854 q 874 918 896 889 q 815 947 851 947 l 815 972 z "},"x":{"ha":733,"x_min":-10,"x_max":743,"o":"m 743 25 l 743 0 l 428 0 l 428 25 q 478 53 461 25 q 482 110 496 81 l 326 443 l 163 129 q 164 60 143 94 q 225 25 185 25 l 225 0 l -8 0 l -8 25 q 69 47 33 25 q 125 106 106 69 l 314 468 l 121 879 q 78 928 107 910 q 15 947 50 947 l 15 972 l 324 972 l 324 947 q 272 919 290 947 q 269 860 254 890 l 396 592 l 522 846 q 519 914 540 881 q 460 947 499 947 l 460 972 l 686 972 l 686 947 q 610 926 644 947 q 557 867 575 904 l 408 567 l 631 97 q 676 44 646 64 q 743 25 707 25 z "},"y":{"ha":690,"x_min":-17,"x_max":707,"o":"m 492 972 l 706 972 l 706 947 q 638 927 669 947 q 592 875 607 907 l 413 496 l 413 119 q 440 53 413 81 q 507 25 468 25 l 507 0 l 203 0 l 203 25 q 269 53 242 25 q 296 119 296 81 l 296 468 l 97 876 q 50 928 81 908 q -17 947 19 947 l -17 972 l 303 972 l 303 947 q 246 916 265 947 q 243 851 226 885 l 401 519 l 556 849 q 551 915 571 883 q 492 947 531 947 l 492 972 z "},"z":{"ha":583,"x_min":15,"x_max":563,"o":"m 540 251 l 561 251 l 561 0 l 15 0 l 15 25 l 424 947 l 244 947 q 135 926 174 947 q 79 860 96 904 q 60 747 63 817 l 39 747 l 39 972 l 554 972 l 554 947 l 144 25 l 356 25 q 467 48 428 25 q 522 120 506 71 q 540 251 538 169 z "},"{":{"ha":267,"x_min":56,"x_max":271,"o":"m 269 999 q 216 979 238 999 q 183 926 194 960 q 172 853 172 893 q 181 767 172 806 q 199 684 190 728 q 207 578 207 640 q 191 497 207 526 q 144 451 175 467 q 69 422 113 435 q 144 394 114 410 q 191 349 175 378 q 207 268 207 319 q 199 161 207 204 q 181 79 190 118 q 172 -7 172 40 q 183 -81 172 -47 q 216 -135 194 -115 q 269 -156 238 -156 l 269 -181 q 141 -159 188 -181 q 76 -97 94 -137 q 57 4 57 -56 q 67 115 57 69 q 89 196 76 161 q 110 259 101 231 q 119 319 119 288 q 100 379 119 358 q 57 410 81 400 l 57 435 q 100 466 81 444 q 119 526 119 488 q 110 586 119 557 q 89 649 101 615 q 67 730 76 683 q 57 840 57 776 q 76 941 57 900 q 141 1003 94 982 q 269 1025 188 1025 l 269 999 z "},"|":{"ha":146,"x_min":63,"x_max":83,"o":"m 83 -310 l 63 -310 l 63 1025 l 83 1025 l 83 -310 z "},"}":{"ha":267,"x_min":-4,"x_max":210,"o":"m 146 525 q 165 465 146 486 q 208 435 185 444 l 208 410 q 165 378 185 400 q 146 317 146 357 q 156 258 146 286 q 178 194 165 229 q 199 114 190 160 q 208 3 208 68 q 190 -97 208 -56 q 124 -160 171 -139 q -4 -182 78 -182 l -4 -154 q 50 -135 28 -154 q 83 -82 72 -115 q 94 -8 94 -49 q 85 78 94 39 q 68 160 76 115 q 58 267 58 204 q 76 350 58 321 q 128 396 94 379 q 196 421 157 410 q 128 447 157 433 q 76 492 94 463 q 58 576 58 522 q 68 683 58 640 q 85 765 76 726 q 94 851 94 804 q 83 926 94 892 q 50 980 72 960 q -4 1000 28 1000 l -4 1025 q 124 1003 78 1025 q 190 940 171 982 q 208 839 208 899 q 199 728 208 775 q 178 648 190 682 q 156 585 165 614 q 146 525 146 556 z "},"~":{"ha":590,"x_min":39,"x_max":550,"o":"m 528 675 l 549 675 q 528 551 549 600 q 472 477 507 501 q 393 453 436 453 q 329 465 354 453 q 287 496 304 478 q 254 532 269 514 q 218 563 239 550 q 164 575 197 575 q 114 564 138 575 q 76 528 90 553 q 61 458 61 503 l 40 458 q 61 583 40 533 q 117 656 82 632 q 196 681 153 681 q 253 668 231 681 q 294 638 276 656 q 327 601 311 619 q 364 571 343 583 q 414 558 385 558 q 473 569 447 558 q 513 606 499 581 q 528 675 528 631 z "}," ":{"ha":419,"x_min":0,"x_max":0,"o":""},"¡":{"ha":240,"x_min":49,"x_max":192,"o":"m 190 -160 q 191 -172 192 -165 q 190 -183 190 -178 q 176 -262 190 -231 q 121 -294 161 -294 q 65 -262 81 -294 q 50 -183 50 -231 q 50 -172 50 -178 q 50 -160 50 -165 q 65 -6 54 -78 q 85 132 75 65 q 103 265 96 199 q 111 400 111 331 l 132 400 q 140 265 132 331 q 157 132 147 199 q 176 -6 167 65 q 190 -160 186 -78 m 120 524 q 110 524 120 524 q 84 535 100 524 q 58 567 68 547 q 49 613 49 588 q 58 656 49 636 q 84 688 68 676 q 120 700 100 700 q 156 688 140 700 q 181 656 172 676 q 190 613 190 636 q 181 567 190 588 q 156 535 172 547 q 120 524 140 524 z "},"¢":{"ha":532,"x_min":47,"x_max":485,"o":"m 378 53 q 393 63 378 53 q 428 107 408 72 q 463 186 449 142 l 485 186 q 418 53 464 106 q 303 1 376 6 l 303 -96 l 282 -96 l 282 1 q 168 38 218 3 q 81 143 113 74 q 49 313 49 213 q 77 469 49 399 q 161 581 106 539 q 282 622 211 619 l 282 732 l 303 732 l 303 622 q 390 600 353 621 q 453 540 431 576 q 475 461 475 504 q 457 402 475 424 q 411 381 439 381 q 381 388 397 381 q 355 414 365 396 q 344 460 344 432 q 365 517 344 497 q 411 538 385 538 q 431 535 421 538 q 408 560 421 549 q 361 586 386 576 q 311 596 336 596 q 303 596 308 596 l 303 33 q 305 33 304 33 q 306 33 306 33 q 378 53 349 33 m 242 56 q 282 36 260 40 l 282 592 q 242 569 258 586 q 201 499 215 542 q 181 408 186 457 q 176 313 176 358 q 182 206 176 256 q 202 117 188 156 q 242 56 217 78 z "},"£":{"ha":717,"x_min":38,"x_max":667,"o":"m 588 139 q 599 145 588 139 q 624 176 610 151 q 638 239 638 200 l 658 239 q 634 80 658 138 q 569 -2 610 22 q 479 -26 528 -26 q 388 -14 426 -26 q 319 14 349 -1 q 266 41 290 29 q 217 53 242 53 q 175 45 196 53 q 139 23 154 38 q 118 -12 124 8 l 99 -12 q 103 87 92 42 q 133 169 114 132 q 174 239 153 207 q 209 299 194 271 q 224 351 224 326 q 211 453 224 407 q 192 513 203 482 l 38 513 l 38 539 l 182 539 q 153 626 165 581 q 140 726 140 671 q 175 877 140 817 q 274 968 210 938 q 422 999 338 999 q 532 980 486 999 q 608 929 578 961 q 652 859 638 897 q 667 781 667 821 q 656 731 667 751 q 630 700 646 710 q 594 690 614 690 q 564 699 579 690 q 538 726 549 708 q 528 774 528 744 q 537 816 528 797 q 562 844 546 835 q 594 854 578 854 q 629 846 613 854 q 638 839 633 843 q 633 853 636 847 q 593 915 619 888 q 527 958 567 942 q 436 975 488 975 q 354 953 386 975 q 304 898 322 932 q 279 824 286 864 q 272 749 272 785 q 281 660 272 700 q 301 585 290 621 q 315 539 308 563 l 507 539 l 507 513 l 322 513 q 331 444 331 479 q 315 344 331 386 q 273 270 299 303 q 219 209 247 238 q 166 149 190 181 q 128 79 142 118 q 118 28 119 57 q 129 57 122 44 q 162 112 142 89 q 208 148 182 135 q 268 161 233 161 q 335 154 307 161 q 388 139 364 147 q 435 124 411 131 q 488 118 458 118 q 539 122 513 118 q 588 139 565 126 z "},"¥":{"ha":861,"x_min":69,"x_max":793,"o":"m 578 986 l 792 986 l 792 961 q 725 942 756 961 q 679 889 694 922 l 499 508 l 499 442 l 689 442 l 689 418 l 499 418 l 499 247 l 689 247 l 689 222 l 499 222 l 499 133 q 526 67 499 94 q 593 39 554 39 l 593 14 l 289 14 l 289 39 q 355 67 328 39 q 382 133 382 94 l 382 222 l 214 222 l 214 247 l 382 247 l 382 418 l 214 418 l 214 442 l 382 442 l 382 481 l 183 889 q 136 942 167 922 q 69 961 106 961 l 69 986 l 389 986 l 389 961 q 332 930 351 961 q 329 865 313 899 l 488 533 l 642 860 q 638 928 658 896 q 578 961 617 961 l 578 986 z "},"§":{"ha":457,"x_min":57,"x_max":400,"o":"m 300 342 q 400 150 400 254 q 384 65 400 101 q 342 10 368 29 q 290 -17 317 -8 q 236 -25 264 -25 q 190 -17 211 -25 q 159 -3 168 -10 q 135 17 150 4 q 93 21 117 32 q 69 -14 69 10 q 69 -15 69 -14 l 57 -15 l 57 171 l 71 171 q 93 109 74 149 q 150 31 113 69 q 226 -7 188 -7 q 276 1 251 -7 q 323 33 300 8 q 346 97 346 58 q 318 170 346 132 q 255 237 290 208 q 174 306 219 265 q 104 379 128 346 q 61 492 61 436 q 63 525 61 510 q 105 619 71 589 q 181 656 139 649 q 92 750 124 706 q 61 847 61 794 q 74 925 61 892 q 106 974 88 958 q 147 1000 124 990 q 185 1012 171 1010 q 211 1014 199 1014 q 213 1014 213 1014 q 214 1014 213 1014 q 217 1014 214 1014 l 218 1014 q 306 974 258 1013 q 347 969 324 958 q 369 1004 369 981 q 371 1006 371 1004 l 382 1006 l 382 819 l 368 819 q 348 881 367 842 q 292 958 329 919 q 215 997 256 996 q 144 968 169 996 q 118 900 118 940 q 147 828 118 864 q 212 767 175 793 q 294 703 249 742 q 363 628 339 664 q 382 590 375 610 q 400 506 400 550 q 300 342 400 379 m 281 358 q 346 451 346 383 q 343 473 346 463 q 338 492 340 483 q 327 513 335 501 q 315 531 319 524 q 299 549 310 538 q 282 567 288 561 q 262 586 276 574 q 242 603 247 599 q 219 622 236 608 q 199 640 203 636 q 139 608 160 635 q 118 544 118 581 q 126 503 118 522 q 154 463 135 483 q 189 430 174 443 q 235 393 204 417 q 281 358 267 369 z "},"©":{"ha":903,"x_min":49,"x_max":853,"o":"m 467 165 q 543 190 508 165 q 596 249 578 214 q 623 309 614 283 q 633 349 632 335 l 647 349 l 647 157 l 635 157 q 635 160 635 158 q 611 193 635 183 q 569 186 588 203 q 524 160 554 171 q 458 149 493 149 q 400 158 431 149 q 334 192 369 167 q 271 254 299 217 q 224 356 243 292 q 206 500 206 419 q 226 647 206 582 q 277 750 247 713 q 344 811 307 788 q 412 843 382 835 q 467 851 442 851 q 561 810 511 851 q 603 806 579 794 q 628 840 626 817 q 628 842 628 842 l 640 842 l 640 651 l 625 651 q 604 715 624 674 q 547 794 585 756 q 467 833 508 833 q 438 827 454 833 q 396 799 421 821 q 351 744 371 778 q 316 646 331 710 q 301 500 301 582 q 321 352 301 419 q 367 247 340 285 q 421 187 394 208 q 467 165 447 165 m 735 853 q 763 819 735 853 q 822 694 790 785 q 853 499 853 603 q 822 306 853 396 q 735 147 790 215 q 607 40 679 78 q 451 1 535 1 q 295 40 368 1 q 167 147 222 78 q 81 306 113 215 q 50 499 50 396 q 81 694 50 603 q 167 853 113 785 q 295 960 222 922 q 451 999 368 999 q 607 960 535 999 q 735 853 679 922 m 720 165 q 746 198 720 165 q 802 316 772 231 q 832 500 832 401 q 802 684 832 599 q 720 835 772 769 q 599 937 668 900 q 451 974 531 974 q 303 937 372 974 q 182 835 235 900 q 100 684 129 769 q 71 500 71 599 q 100 316 71 401 q 182 165 129 231 q 303 63 235 100 q 451 26 372 26 q 599 63 531 26 q 720 165 668 100 z "},"ª":{"ha":389,"x_min":43,"x_max":350,"o":"m 343 685 l 349 671 q 324 642 340 653 q 285 631 307 631 q 244 646 261 631 q 226 699 226 661 l 226 719 q 207 672 219 692 q 133 631 182 631 q 69 656 93 631 q 44 726 44 682 q 81 808 44 778 q 183 838 117 838 l 226 838 l 226 875 q 222 928 226 903 q 206 971 218 954 q 168 988 193 988 q 131 981 150 988 q 106 968 117 976 q 132 957 121 967 q 144 924 144 944 q 132 887 144 899 q 106 875 119 875 q 77 888 88 875 q 67 922 67 900 q 83 965 67 947 q 126 993 100 983 q 181 1003 153 1003 q 249 985 225 1003 q 281 938 272 967 q 290 875 290 908 l 290 685 q 294 663 290 672 q 310 654 297 654 q 326 663 317 654 q 343 685 336 671 m 226 781 l 226 825 l 189 825 q 146 811 163 825 q 122 776 129 797 q 115 735 115 754 q 126 683 115 706 q 158 660 136 660 q 205 690 183 660 q 226 781 226 719 z "},"«":{"ha":725,"x_min":32,"x_max":688,"o":"m 394 818 l 178 515 l 394 214 l 385 201 l 32 500 l 32 532 l 385 831 l 394 818 m 686 818 l 472 515 l 686 214 l 676 201 l 324 500 l 324 532 l 676 831 l 686 818 z "},"­":{"ha":0,"x_min":0,"x_max":0,"o":""},"®":{"ha":999,"x_min":49,"x_max":972,"o":"m 971 147 q 971 144 971 146 q 947 87 971 110 q 876 64 922 64 q 722 131 794 64 q 607 39 671 74 q 451 1 535 1 q 295 40 368 1 q 167 147 222 78 q 81 306 113 215 q 50 499 50 396 q 81 694 50 603 q 167 853 113 785 q 295 960 222 922 q 451 999 368 999 q 607 960 535 999 q 735 853 679 922 q 822 694 790 785 q 853 499 853 603 q 821 306 853 396 q 756 175 797 233 q 890 72 822 72 q 949 108 936 72 q 925 103 938 103 q 893 116 907 103 q 879 147 879 129 q 893 178 879 165 q 925 192 907 192 q 939 190 933 192 q 971 153 968 182 q 971 151 971 151 q 971 150 971 150 q 971 147 971 147 m 504 522 q 576 475 540 513 q 633 399 611 438 q 690 293 656 360 q 743 196 725 226 q 801 315 779 250 q 832 500 832 401 q 802 684 832 599 q 720 835 772 769 q 599 937 668 900 q 451 974 531 974 q 303 937 372 974 q 182 835 235 900 q 100 684 129 769 q 71 500 71 599 q 100 316 71 401 q 182 165 129 231 q 303 63 235 100 q 451 26 372 26 q 599 63 531 26 q 704 147 658 94 q 603 288 654 199 q 517 443 553 378 q 457 518 482 508 l 417 518 l 417 292 q 438 240 417 261 q 490 218 460 218 l 490 200 l 265 200 l 265 218 q 317 240 296 218 q 339 292 339 261 l 339 754 q 317 807 339 785 q 265 829 296 829 l 265 846 l 497 846 q 541 839 515 846 q 599 816 567 832 q 653 765 631 800 q 675 682 675 729 q 656 608 675 640 q 607 558 636 575 q 551 533 578 542 q 504 522 525 524 m 492 535 q 518 542 503 535 q 551 564 533 549 q 582 610 569 579 q 594 682 594 640 q 557 790 594 751 q 492 829 519 829 l 417 829 l 417 535 l 492 535 z "},"°":{"ha":335,"x_min":40,"x_max":293,"o":"m 230 1029 q 244 1019 230 1029 q 275 973 258 1008 q 292 894 292 938 q 275 817 292 851 q 230 760 258 782 q 167 739 201 739 q 103 760 132 739 q 58 817 75 782 q 42 894 42 851 q 58 973 42 938 q 103 1029 75 1008 q 167 1050 132 1050 q 230 1029 201 1050 m 167 789 q 185 789 167 789 q 228 819 203 789 q 253 894 253 849 q 228 971 253 940 q 167 1001 203 1001 q 106 971 131 1001 q 81 894 81 940 q 106 819 81 849 q 167 789 131 789 z "},"²":{"ha":447,"x_min":43,"x_max":397,"o":"m 315 460 q 363 480 343 460 q 382 528 382 500 l 396 528 l 396 364 l 44 364 l 44 432 l 206 613 q 274 724 251 663 q 297 853 297 786 q 293 893 297 869 q 278 947 289 917 q 245 999 268 978 q 192 1019 222 1019 q 136 1000 153 1019 q 122 957 119 981 q 138 917 125 933 q 149 885 149 903 q 135 851 149 865 q 101 838 121 838 q 69 851 83 838 q 56 882 56 864 l 54 882 q 67 950 51 914 q 122 1016 82 986 q 219 1046 163 1046 q 308 1022 271 1046 q 363 960 344 999 q 382 875 382 921 q 374 813 382 840 q 353 762 367 785 q 324 719 340 739 q 293 682 308 699 l 96 460 l 315 460 z "},"³":{"ha":436,"x_min":46,"x_max":386,"o":"m 210 726 q 334 668 282 714 q 386 535 386 622 q 328 401 386 446 q 200 356 271 356 q 131 369 161 356 q 87 398 101 382 q 62 438 72 414 q 49 472 51 461 q 46 497 47 483 q 46 501 46 500 q 46 504 46 503 q 60 538 46 524 q 93 551 74 551 q 126 538 113 551 q 140 504 140 524 q 136 486 140 494 q 127 417 119 442 q 151 382 135 392 q 192 372 167 372 q 220 380 204 372 q 256 404 236 388 q 288 458 275 421 q 300 544 300 494 q 288 628 300 593 q 261 679 276 663 q 224 706 246 696 q 190 718 203 717 q 164 719 176 719 l 164 731 q 217 740 194 731 q 251 765 239 750 q 269 802 263 779 q 277 844 275 825 q 279 892 279 864 q 256 992 279 954 q 200 1029 232 1029 q 156 1017 175 1029 q 130 980 136 1006 q 153 914 124 954 q 163 885 163 901 q 149 851 163 865 q 115 838 135 838 q 85 849 99 838 q 69 876 72 860 l 69 876 q 68 882 68 879 q 71 933 65 907 q 92 985 76 958 q 139 1029 107 1013 q 215 1046 171 1046 q 287 1032 257 1046 q 331 1000 317 1018 q 353 956 346 982 q 363 918 361 931 q 364 892 364 906 q 349 822 364 853 q 310 773 335 792 q 260 743 285 754 q 210 726 236 732 z "},"·":{"ha":221,"x_min":39,"x_max":182,"o":"m 147 620 q 155 614 147 620 q 172 588 163 608 q 182 543 182 568 q 172 499 182 519 q 147 466 163 478 q 110 454 131 454 q 74 466 90 454 q 49 499 58 478 q 39 543 39 519 q 49 588 39 568 q 74 620 58 608 q 110 632 90 632 q 147 620 131 632 z "},"¹":{"ha":319,"x_min":40,"x_max":281,"o":"m 201 461 q 224 405 201 428 q 281 382 247 382 l 281 364 l 40 364 l 40 382 q 97 405 74 382 q 119 461 119 428 l 119 893 q 101 962 119 947 q 40 976 82 976 l 40 989 l 157 1038 l 201 1038 l 201 461 z "},"º":{"ha":382,"x_min":44,"x_max":338,"o":"m 268 977 q 285 964 268 977 q 319 909 301 951 q 336 816 336 867 q 319 723 336 765 q 268 655 301 681 q 190 629 235 629 q 113 655 144 629 q 63 723 81 681 q 44 816 44 765 q 62 909 44 867 q 112 977 79 951 q 190 1003 144 1003 q 268 977 235 1003 m 237 672 q 245 685 237 672 q 258 738 253 699 q 264 816 264 778 q 258 894 264 854 q 237 960 253 933 q 190 988 221 988 q 144 960 160 988 q 122 894 128 933 q 117 816 117 856 q 122 738 117 776 q 144 672 128 699 q 190 644 160 644 q 237 672 221 644 z "},"»":{"ha":725,"x_min":38,"x_max":693,"o":"m 340 831 l 692 532 l 692 500 l 340 201 l 329 214 l 546 515 l 329 818 l 340 831 m 400 532 l 400 500 l 49 201 l 38 214 l 253 515 l 38 818 l 49 831 l 400 532 z "},"¿":{"ha":557,"x_min":18,"x_max":488,"o":"m 285 524 q 248 535 264 524 q 222 567 232 547 q 213 613 213 588 q 222 656 213 636 q 248 688 232 676 q 285 700 264 700 q 320 688 304 700 q 346 656 336 676 q 356 613 356 636 q 346 567 356 588 q 320 535 336 547 q 285 524 304 524 m 421 15 q 467 -8 447 15 q 488 -74 488 -31 q 470 -153 488 -114 q 423 -226 453 -193 q 353 -278 393 -258 q 267 -297 313 -297 q 135 -265 192 -297 q 49 -174 79 -232 q 18 -37 18 -115 q 51 97 18 36 q 144 197 85 158 q 164 210 154 204 q 248 290 217 238 q 279 404 279 343 l 300 404 l 300 349 q 226 186 300 253 q 211 169 218 179 q 158 76 175 129 q 142 -37 142 22 q 147 -126 142 -85 q 166 -199 151 -167 q 208 -251 181 -232 q 282 -269 236 -269 q 347 -248 324 -269 q 372 -197 369 -226 q 372 -144 375 -168 q 363 -107 368 -119 q 354 -65 354 -90 q 365 -19 354 -37 q 390 7 375 -1 q 421 15 406 15 z "},"À":{"ha":725,"x_min":-15,"x_max":739,"o":"m 738 25 l 738 0 l 419 0 l 419 25 q 482 56 458 25 q 496 124 506 86 l 450 297 l 182 297 l 135 131 q 149 58 124 92 q 214 25 174 25 l 214 0 l -15 0 l -15 25 q 60 51 26 25 q 107 117 94 76 l 354 972 l 388 972 l 635 103 q 673 47 644 68 q 738 25 701 25 m 189 322 l 443 322 l 321 785 l 189 322 m 381 1014 l 343 1014 l 281 1136 l 353 1136 l 381 1014 z "},"Á":{"ha":725,"x_min":-15,"x_max":739,"o":"m 635 103 q 673 47 644 68 q 738 25 701 25 l 738 0 l 419 0 l 419 25 q 482 56 458 25 q 496 124 506 86 l 450 297 l 182 297 l 135 131 q 149 58 124 92 q 214 25 174 25 l 214 0 l -15 0 l -15 25 q 60 51 26 25 q 107 117 94 76 l 354 972 l 388 972 l 635 103 m 189 322 l 443 322 l 321 785 l 189 322 m 460 1135 l 393 1014 l 357 1015 l 388 1136 l 460 1135 z "},"Â":{"ha":725,"x_min":-15,"x_max":739,"o":"m 361 1058 l 290 1014 l 249 1014 l 344 1136 l 378 1136 l 474 1014 l 432 1014 l 361 1058 m 635 103 q 673 47 644 68 q 738 25 701 25 l 738 0 l 419 0 l 419 25 q 482 56 458 25 q 496 124 506 86 l 450 297 l 182 297 l 135 131 q 149 58 124 92 q 214 25 174 25 l 214 0 l -15 0 l -15 25 q 60 51 26 25 q 107 117 94 76 l 354 972 l 388 972 l 635 103 m 189 322 l 443 322 l 321 785 l 189 322 z "},"Ã":{"ha":725,"x_min":-15,"x_max":739,"o":"m 267 1039 l 258 1039 q 258 1044 258 1040 q 267 1099 258 1078 q 290 1132 275 1121 q 321 1143 304 1143 q 344 1138 335 1143 q 361 1124 354 1132 q 374 1108 368 1115 q 389 1094 381 1100 q 410 1089 397 1089 q 434 1094 424 1089 q 450 1110 444 1099 q 456 1140 456 1121 l 464 1140 q 464 1135 464 1139 q 456 1080 464 1101 q 433 1047 447 1058 q 401 1036 419 1036 q 376 1042 386 1036 q 358 1056 365 1047 q 345 1072 351 1064 q 331 1085 339 1079 q 308 1090 322 1090 q 288 1085 297 1090 q 272 1069 278 1081 q 267 1039 267 1058 m 635 103 q 673 47 644 68 q 738 25 701 25 l 738 0 l 419 0 l 419 25 q 482 56 458 25 q 496 124 506 86 l 450 297 l 182 297 l 135 131 q 149 58 124 92 q 214 25 174 25 l 214 0 l -15 0 l -15 25 q 60 51 26 25 q 107 117 94 76 l 354 972 l 388 972 l 635 103 m 189 322 l 443 322 l 321 785 l 189 322 z "},"Ä":{"ha":725,"x_min":-15,"x_max":739,"o":"m 635 103 q 673 47 644 68 q 738 25 701 25 l 738 0 l 419 0 l 419 25 q 482 56 458 25 q 496 124 506 86 l 450 297 l 182 297 l 135 131 q 149 58 124 92 q 214 25 174 25 l 214 0 l -15 0 l -15 25 q 60 51 26 25 q 107 117 94 76 l 354 972 l 388 972 l 635 103 m 189 322 l 443 322 l 321 785 l 189 322 m 325 1046 q 319 1040 325 1046 q 295 1033 313 1033 q 266 1046 278 1033 q 254 1076 254 1058 q 266 1106 254 1093 q 295 1118 278 1118 q 325 1106 313 1118 q 338 1076 338 1093 q 325 1046 338 1058 m 457 1046 q 451 1040 457 1046 q 427 1033 444 1033 q 397 1046 410 1033 q 385 1076 385 1058 q 397 1106 385 1093 q 427 1118 410 1118 q 457 1106 444 1118 q 469 1076 469 1093 q 457 1046 469 1058 z "},"Å":{"ha":725,"x_min":-15,"x_max":739,"o":"m 738 25 l 738 0 l 419 0 l 419 25 q 482 56 458 25 q 496 124 506 86 l 450 297 l 182 297 l 135 131 q 149 58 124 92 q 214 25 174 25 l 214 0 l -15 0 l -15 25 q 60 51 26 25 q 107 117 94 76 l 354 972 l 388 972 l 635 103 q 673 47 644 68 q 738 25 701 25 m 189 322 l 443 322 l 321 785 l 189 322 m 436 1001 q 422 986 436 1001 q 369 972 408 972 q 301 1001 329 972 q 274 1068 274 1029 q 301 1135 274 1107 q 369 1164 329 1164 q 436 1135 408 1164 q 464 1068 464 1107 q 436 1001 464 1029 m 422 1122 q 411 1133 422 1122 q 369 1144 400 1144 q 315 1122 338 1144 q 292 1068 292 1100 q 315 1014 292 1036 q 369 992 338 992 q 422 1014 400 992 q 444 1068 444 1036 q 422 1122 444 1100 z "},"Æ":{"ha":1124,"x_min":-15,"x_max":1089,"o":"m 1067 292 l 1088 292 l 1088 0 l 419 0 l 419 25 q 482 56 458 25 q 496 124 506 86 l 450 297 l 182 297 l 135 131 q 149 58 124 92 q 214 25 174 25 l 214 0 l -15 0 l -15 25 q 60 51 26 25 q 107 117 94 76 l 354 972 l 388 972 l 604 213 l 604 853 q 576 919 604 892 q 510 947 549 947 l 510 972 l 1078 972 l 1078 707 l 1057 707 q 1036 831 1054 776 q 980 916 1018 885 q 881 947 942 947 l 721 947 l 721 515 l 774 515 q 828 530 804 515 q 867 573 851 544 q 885 644 882 601 l 904 644 l 904 356 l 885 356 q 867 428 882 399 q 828 474 851 458 q 774 490 804 490 l 721 490 l 721 26 q 728 25 724 26 l 869 25 q 983 58 940 25 q 1046 150 1026 90 q 1067 292 1065 210 m 189 322 l 443 322 l 321 785 l 189 322 z "},"Ç":{"ha":692,"x_min":31,"x_max":658,"o":"m 638 272 l 658 272 l 658 0 l 639 0 l 639 3 q 606 51 639 38 q 547 42 572 65 q 490 7 528 22 q 408 -12 451 -8 q 400 -12 406 -12 l 392 -26 q 443 -42 426 -26 q 460 -78 460 -57 q 435 -118 460 -103 q 364 -133 411 -133 l 339 -97 q 367 -99 351 -99 q 426 -95 410 -99 q 443 -78 443 -92 q 431 -65 443 -68 q 388 -60 419 -61 q 374 -58 379 -58 q 363 -58 368 -58 l 381 -24 l 388 -12 l 388 -12 q 305 1 349 -12 q 211 49 261 14 q 122 138 161 85 q 56 283 82 192 q 31 486 31 374 q 60 697 31 604 q 131 842 89 790 q 227 928 174 894 q 323 974 281 963 q 400 986 365 986 q 535 926 463 986 q 595 920 561 904 q 629 971 629 936 l 629 974 l 647 974 l 647 701 l 626 701 q 606 764 624 724 q 561 850 589 804 q 490 928 533 896 q 400 961 446 961 q 359 952 383 961 q 300 912 335 943 q 237 833 265 881 q 188 694 208 785 q 167 486 167 603 q 185 314 167 394 q 230 180 203 233 q 290 87 257 126 q 351 30 322 47 q 400 13 379 13 l 401 13 q 422 14 413 13 q 505 44 467 18 q 566 102 543 69 q 606 172 589 135 q 629 233 622 208 q 638 272 636 258 z "},"È":{"ha":626,"x_min":11,"x_max":592,"o":"m 571 292 l 590 292 l 590 0 l 13 0 l 13 25 q 79 53 51 25 q 107 119 107 81 l 107 853 q 79 919 107 892 q 13 947 51 947 l 13 972 l 581 972 l 581 707 l 560 707 q 540 831 558 776 q 483 916 521 885 q 383 947 444 947 l 224 947 l 224 515 l 278 515 q 331 530 307 515 q 369 573 354 544 q 388 644 385 601 l 408 644 l 408 356 l 388 356 q 369 428 385 399 q 331 474 354 458 q 278 490 307 490 l 224 490 l 224 25 l 372 25 q 487 58 444 25 q 549 150 529 90 q 571 292 568 210 m 333 1014 l 297 1014 l 233 1136 l 306 1136 l 333 1014 z "},"É":{"ha":626,"x_min":13,"x_max":592,"o":"m 571 292 l 590 292 l 590 0 l 13 0 l 13 25 q 79 53 51 25 q 107 119 107 81 l 107 853 q 79 919 107 892 q 13 947 51 947 l 13 972 l 581 972 l 581 707 l 560 707 q 540 831 558 776 q 483 916 521 885 q 383 947 444 947 l 224 947 l 224 515 l 278 515 q 331 530 307 515 q 369 573 354 544 q 388 644 385 601 l 408 644 l 408 356 l 388 356 q 369 428 385 399 q 331 474 354 458 q 278 490 307 490 l 224 490 l 224 25 l 372 25 q 487 58 444 25 q 549 150 529 90 q 571 292 568 210 m 404 1135 l 338 1014 l 301 1015 l 332 1136 l 404 1135 z "},"Ê":{"ha":626,"x_min":13,"x_max":592,"o":"m 571 292 l 590 292 l 590 0 l 13 0 l 13 25 q 79 53 51 25 q 107 119 107 81 l 107 853 q 79 919 107 892 q 13 947 51 947 l 13 972 l 581 972 l 581 707 l 560 707 q 540 831 558 776 q 483 916 521 885 q 383 947 444 947 l 224 947 l 224 515 l 278 515 q 331 530 307 515 q 369 573 354 544 q 388 644 385 601 l 408 644 l 408 356 l 388 356 q 369 428 385 399 q 331 474 354 458 q 278 490 307 490 l 224 490 l 224 25 l 372 25 q 487 58 444 25 q 549 150 529 90 q 571 292 568 210 m 301 1058 l 231 1014 l 189 1014 l 285 1136 l 318 1136 l 414 1014 l 372 1014 l 301 1058 z "},"Ë":{"ha":626,"x_min":11,"x_max":592,"o":"m 571 292 l 590 292 l 590 0 l 13 0 l 13 25 q 79 53 51 25 q 107 119 107 81 l 107 853 q 79 919 107 892 q 13 947 51 947 l 13 972 l 581 972 l 581 707 l 560 707 q 540 831 558 776 q 483 916 521 885 q 383 947 444 947 l 224 947 l 224 515 l 278 515 q 331 530 307 515 q 369 573 354 544 q 388 644 385 601 l 408 644 l 408 356 l 388 356 q 369 428 385 399 q 331 474 354 458 q 278 490 307 490 l 224 490 l 224 25 l 372 25 q 487 58 444 25 q 549 150 529 90 q 571 292 568 210 m 270 1051 q 265 1044 270 1051 q 242 1035 260 1038 q 211 1042 225 1032 q 194 1069 197 1051 q 202 1100 192 1086 q 229 1117 213 1114 q 260 1109 246 1119 q 278 1082 275 1099 q 270 1051 281 1065 m 401 1051 q 397 1044 401 1051 q 374 1035 392 1038 q 343 1042 357 1032 q 326 1069 329 1051 q 333 1100 324 1086 q 360 1117 343 1114 q 392 1109 378 1119 q 408 1082 406 1099 q 401 1051 411 1065 z "},"Ì":{"ha":368,"x_min":7,"x_max":364,"o":"m 353 947 q 272 913 306 947 q 239 832 239 879 l 239 140 q 272 59 239 93 q 353 25 306 25 l 364 25 l 364 0 l 7 0 l 7 25 q 88 59 54 25 q 122 140 122 93 l 122 832 q 88 913 122 879 q 7 947 54 947 l 7 972 l 364 972 l 364 947 l 353 947 m 204 1014 l 168 1014 l 104 1136 l 176 1136 l 204 1014 z "},"Í":{"ha":368,"x_min":7,"x_max":364,"o":"m 353 947 q 272 913 306 947 q 239 832 239 879 l 239 140 q 272 59 239 93 q 353 25 306 25 l 364 25 l 364 0 l 7 0 l 7 25 q 88 59 54 25 q 122 140 122 93 l 122 832 q 88 913 122 879 q 7 947 54 947 l 7 972 l 364 972 l 364 947 l 353 947 m 272 1135 l 206 1014 l 169 1015 l 200 1136 l 272 1135 z "},"Î":{"ha":368,"x_min":7,"x_max":364,"o":"m 353 947 q 272 913 306 947 q 239 832 239 879 l 239 140 q 272 59 239 93 q 353 25 306 25 l 364 25 l 364 0 l 7 0 l 7 25 q 88 59 54 25 q 122 140 122 93 l 122 832 q 88 913 122 879 q 7 947 54 947 l 7 972 l 364 972 l 364 947 l 353 947 m 185 1058 l 114 1014 l 72 1014 l 168 1136 l 201 1136 l 297 1014 l 256 1014 l 185 1058 z "},"Ï":{"ha":368,"x_min":7,"x_max":364,"o":"m 353 947 q 272 913 306 947 q 239 832 239 879 l 239 140 q 272 59 239 93 q 353 25 306 25 l 364 25 l 364 0 l 7 0 l 7 25 q 88 59 54 25 q 122 140 122 93 l 122 832 q 88 913 122 879 q 7 947 54 947 l 7 972 l 364 972 l 364 947 l 353 947 m 149 1046 q 142 1040 149 1046 q 119 1033 136 1033 q 90 1046 101 1033 q 78 1076 78 1058 q 90 1106 78 1093 q 119 1118 101 1118 q 149 1106 136 1118 q 161 1076 161 1093 q 149 1046 161 1058 m 285 1051 q 280 1044 285 1051 q 258 1035 275 1038 q 226 1042 240 1032 q 210 1069 213 1051 q 217 1100 207 1086 q 244 1117 228 1114 q 275 1109 261 1119 q 292 1082 289 1099 q 285 1051 294 1065 z "},"Ñ":{"ha":753,"x_min":10,"x_max":744,"o":"m 533 972 l 744 972 l 744 947 q 678 919 706 947 q 650 853 650 892 l 650 -12 l 621 -12 l 185 851 q 156 864 175 868 q 138 840 138 860 l 138 132 q 169 56 138 88 q 244 25 200 25 l 246 25 l 246 0 l 10 0 l 10 25 q 85 56 54 25 q 117 132 117 88 l 117 840 q 85 916 117 885 q 10 947 54 947 l 10 972 l 264 972 l 582 331 q 610 318 590 314 q 629 342 629 322 l 629 853 q 601 919 629 892 q 533 947 574 947 l 533 972 m 282 1039 l 274 1039 q 274 1044 274 1040 q 283 1099 274 1078 q 306 1132 292 1121 q 338 1143 319 1143 q 360 1138 351 1143 q 376 1124 369 1132 q 390 1108 383 1115 q 406 1094 397 1100 q 425 1089 414 1089 q 449 1094 439 1089 q 466 1110 460 1099 q 472 1140 472 1121 l 481 1140 q 481 1135 481 1139 q 472 1080 481 1101 q 449 1047 463 1058 q 417 1036 435 1036 q 391 1042 401 1036 q 374 1056 381 1047 q 360 1072 367 1064 q 346 1085 354 1079 q 324 1090 338 1090 q 303 1085 313 1090 q 288 1069 294 1081 q 282 1039 282 1058 z "},"Ò":{"ha":736,"x_min":29,"x_max":707,"o":"m 198 918 q 237 951 198 918 q 368 985 276 985 q 538 918 460 985 q 662 737 617 851 q 707 486 707 622 q 662 235 707 350 q 538 54 617 121 q 368 -12 460 -12 q 198 54 276 -12 q 74 235 119 121 q 29 486 29 350 q 74 737 29 622 q 198 918 119 851 m 258 76 q 283 44 258 76 q 368 13 308 13 q 478 76 428 13 q 557 249 528 139 q 586 487 586 358 q 557 725 586 615 q 478 898 528 835 q 368 961 428 961 q 258 898 308 961 q 179 725 208 835 q 150 487 150 615 q 179 249 150 358 q 258 76 208 139 m 389 1014 l 353 1014 l 289 1136 l 361 1136 l 389 1014 z "},"Ó":{"ha":736,"x_min":29,"x_max":707,"o":"m 198 918 q 237 951 198 918 q 368 985 276 985 q 538 918 460 985 q 662 737 617 851 q 707 486 707 622 q 662 235 707 350 q 538 54 617 121 q 368 -12 460 -12 q 198 54 276 -12 q 74 235 119 121 q 29 486 29 350 q 74 737 29 622 q 198 918 119 851 m 258 76 q 283 44 258 76 q 368 13 308 13 q 478 76 428 13 q 557 249 528 139 q 586 487 586 358 q 557 725 586 615 q 478 898 528 835 q 368 961 428 961 q 258 898 308 961 q 179 725 208 835 q 150 487 150 615 q 179 249 150 358 q 258 76 208 139 m 453 1135 l 386 1014 l 350 1015 l 381 1136 l 453 1135 z "},"Ô":{"ha":736,"x_min":29,"x_max":707,"o":"m 198 918 q 237 951 198 918 q 368 985 276 985 q 538 918 460 985 q 662 737 617 851 q 707 486 707 622 q 662 235 707 350 q 538 54 617 121 q 368 -12 460 -12 q 198 54 276 -12 q 74 235 119 121 q 29 486 29 350 q 74 737 29 622 q 198 918 119 851 m 258 76 q 283 44 258 76 q 368 13 308 13 q 478 76 428 13 q 557 249 528 139 q 586 487 586 358 q 557 725 586 615 q 478 898 528 835 q 368 961 428 961 q 258 898 308 961 q 179 725 208 835 q 150 487 150 615 q 179 249 150 358 q 258 76 208 139 m 368 1058 l 296 1014 l 256 1014 l 351 1136 l 385 1136 l 481 1014 l 439 1014 l 368 1058 z "},"Õ":{"ha":736,"x_min":29,"x_max":707,"o":"m 198 918 q 237 951 198 918 q 368 985 276 985 q 538 918 460 985 q 662 737 617 851 q 707 486 707 622 q 662 235 707 350 q 538 54 617 121 q 368 -12 460 -12 q 198 54 276 -12 q 74 235 119 121 q 29 486 29 350 q 74 737 29 622 q 198 918 119 851 m 258 76 q 283 44 258 76 q 368 13 308 13 q 478 76 428 13 q 557 249 528 139 q 586 487 586 358 q 557 725 586 615 q 478 898 528 835 q 368 961 428 961 q 258 898 308 961 q 179 725 208 835 q 150 487 150 615 q 179 249 150 358 q 258 76 208 139 m 274 1039 l 265 1039 q 265 1044 265 1040 q 274 1099 265 1078 q 297 1132 282 1121 q 328 1143 311 1143 q 351 1138 342 1143 q 368 1124 361 1132 q 381 1108 375 1115 q 396 1094 388 1100 q 417 1089 404 1089 q 440 1094 431 1089 q 456 1110 450 1099 q 463 1140 463 1121 l 471 1140 q 471 1135 471 1139 q 463 1080 471 1101 q 440 1047 454 1058 q 408 1036 425 1036 q 382 1042 392 1036 q 365 1056 372 1047 q 352 1072 358 1064 q 337 1085 346 1079 q 315 1090 328 1090 q 294 1085 304 1090 q 279 1069 285 1081 q 274 1039 274 1058 z "},"Ö":{"ha":736,"x_min":29,"x_max":707,"o":"m 198 918 q 237 951 198 918 q 368 985 276 985 q 538 918 460 985 q 662 737 617 851 q 707 486 707 622 q 662 235 707 350 q 538 54 617 121 q 368 -12 460 -12 q 198 54 276 -12 q 74 235 119 121 q 29 486 29 350 q 74 737 29 622 q 198 918 119 851 m 258 76 q 283 44 258 76 q 368 13 308 13 q 478 76 428 13 q 557 249 528 139 q 586 487 586 358 q 557 725 586 615 q 478 898 528 835 q 368 961 428 961 q 258 898 308 961 q 179 725 208 835 q 150 487 150 615 q 179 249 150 358 q 258 76 208 139 m 332 1046 q 326 1040 332 1046 q 302 1033 319 1033 q 273 1046 285 1033 q 261 1076 261 1058 q 273 1106 261 1093 q 302 1118 285 1118 q 332 1106 319 1118 q 344 1076 344 1093 q 332 1046 344 1058 m 467 1051 q 462 1044 467 1051 q 440 1035 457 1038 q 410 1042 424 1032 q 393 1069 396 1051 q 400 1100 390 1086 q 427 1117 410 1114 q 458 1109 444 1119 q 475 1082 472 1099 q 467 1051 478 1065 z "},"×":{"ha":419,"x_min":38,"x_max":381,"o":"m 381 569 l 226 415 l 381 263 l 363 244 l 210 399 l 57 244 l 39 263 l 192 415 l 39 569 l 57 586 l 210 433 l 363 586 l 381 569 z "},"Ø":{"ha":736,"x_min":29,"x_max":707,"o":"m 538 918 q 661 737 615 851 q 707 486 707 622 q 662 235 707 350 q 538 54 617 121 q 368 -12 460 -12 q 214 42 286 -12 l 154 -117 l 135 -117 l 197 54 q 75 235 121 121 q 29 486 29 350 q 74 737 29 622 q 198 918 119 851 q 368 985 276 985 q 522 931 450 985 l 582 1089 l 601 1089 l 538 918 m 150 486 q 225 128 150 271 l 499 867 q 368 961 440 961 q 258 898 308 961 q 179 725 208 835 q 150 486 150 615 m 368 13 q 478 76 428 13 q 557 249 528 139 q 586 486 586 358 q 511 844 586 703 l 238 107 q 368 13 296 13 z "},"Ù":{"ha":714,"x_min":7,"x_max":708,"o":"m 494 972 l 707 972 l 707 947 l 703 947 q 637 919 664 947 q 610 853 610 892 l 610 299 q 551 60 610 139 q 367 -18 492 -18 q 165 56 228 -18 q 101 299 101 131 l 101 853 q 74 919 101 892 q 7 947 46 947 l 7 972 l 322 972 l 322 947 l 311 947 q 245 919 272 947 q 218 853 218 892 l 218 311 q 225 193 218 247 q 251 99 232 139 q 304 35 269 58 q 393 13 339 13 q 499 42 456 13 q 566 134 543 71 q 589 299 589 197 l 589 853 q 562 919 589 892 q 496 947 535 947 l 494 947 l 494 972 m 428 1014 l 392 1014 l 328 1136 l 400 1136 l 428 1014 z "},"Ú":{"ha":714,"x_min":7,"x_max":708,"o":"m 494 972 l 707 972 l 707 947 l 703 947 q 637 919 664 947 q 610 853 610 892 l 610 299 q 551 60 610 139 q 367 -18 492 -18 q 165 56 228 -18 q 101 299 101 131 l 101 853 q 74 919 101 892 q 7 947 46 947 l 7 972 l 322 972 l 322 947 l 311 947 q 245 919 272 947 q 218 853 218 892 l 218 311 q 225 193 218 247 q 251 99 232 139 q 304 35 269 58 q 393 13 339 13 q 499 42 456 13 q 566 134 543 71 q 589 299 589 197 l 589 853 q 562 919 589 892 q 496 947 535 947 l 494 947 l 494 972 m 508 1135 l 442 1014 l 406 1015 l 436 1136 l 508 1135 z "},"Û":{"ha":714,"x_min":7,"x_max":708,"o":"m 494 972 l 707 972 l 707 947 l 703 947 q 637 919 664 947 q 610 853 610 892 l 610 299 q 551 60 610 139 q 367 -18 492 -18 q 165 56 228 -18 q 101 299 101 131 l 101 853 q 74 919 101 892 q 7 947 46 947 l 7 972 l 322 972 l 322 947 l 311 947 q 245 919 272 947 q 218 853 218 892 l 218 311 q 225 193 218 247 q 251 99 232 139 q 304 35 269 58 q 393 13 339 13 q 499 42 456 13 q 566 134 543 71 q 589 299 589 197 l 589 853 q 562 919 589 892 q 496 947 535 947 l 494 947 l 494 972 m 357 1058 l 286 1014 l 244 1014 l 340 1136 l 374 1136 l 469 1014 l 428 1014 l 357 1058 z "},"Ü":{"ha":714,"x_min":7,"x_max":708,"o":"m 494 972 l 707 972 l 707 947 l 703 947 q 637 919 664 947 q 610 853 610 892 l 610 299 q 551 60 610 139 q 367 -18 492 -18 q 165 56 228 -18 q 101 299 101 131 l 101 853 q 74 919 101 892 q 7 947 46 947 l 7 972 l 322 972 l 322 947 l 311 947 q 245 919 272 947 q 218 853 218 892 l 218 311 q 225 193 218 247 q 251 99 232 139 q 304 35 269 58 q 393 13 339 13 q 499 42 456 13 q 566 134 543 71 q 589 299 589 197 l 589 853 q 562 919 589 892 q 496 947 535 947 l 494 947 l 494 972 m 326 1051 q 320 1044 326 1051 q 298 1035 315 1038 q 267 1042 281 1032 q 250 1069 253 1051 q 258 1100 247 1086 q 285 1117 268 1114 q 316 1109 301 1119 q 333 1082 331 1099 q 326 1051 336 1065 m 453 1046 q 447 1040 453 1046 q 423 1033 440 1033 q 393 1046 406 1033 q 381 1076 381 1058 q 393 1106 381 1093 q 423 1118 406 1118 q 453 1106 440 1118 q 465 1076 465 1093 q 453 1046 465 1058 z "},"Ý":{"ha":692,"x_min":-17,"x_max":707,"o":"m 492 972 l 706 972 l 706 947 q 638 927 669 947 q 592 875 607 907 l 413 496 l 413 119 q 440 53 413 81 q 507 25 468 25 l 507 0 l 203 0 l 203 25 q 269 53 242 25 q 296 119 296 81 l 296 468 l 97 876 q 50 928 81 908 q -17 947 19 947 l -17 972 l 303 972 l 303 947 q 246 916 265 947 q 243 851 226 885 l 401 519 l 556 849 q 551 915 571 883 q 492 947 531 947 l 492 972 m 483 1135 l 417 1014 l 381 1015 l 411 1136 l 483 1135 z "},"ß":{"ha":800,"x_min":0,"x_max":771,"o":"m 696 419 q 716 397 696 419 q 753 318 736 375 q 769 197 769 261 q 751 104 769 146 q 699 33 732 63 q 623 -12 665 4 q 535 -28 581 -28 q 416 24 463 -28 q 369 169 369 76 q 393 238 369 213 q 450 263 417 263 q 501 241 481 263 q 522 182 522 219 q 512 140 522 158 q 484 112 501 122 q 447 101 467 101 q 414 110 432 101 q 397 121 406 114 q 411 74 401 94 q 459 17 429 36 q 521 -1 489 -1 q 578 17 556 -1 q 611 65 600 35 q 626 128 622 94 q 631 193 631 161 q 623 292 631 239 q 592 392 615 344 q 525 469 569 439 q 408 500 481 500 l 408 525 q 499 544 463 525 q 556 595 535 564 q 587 662 578 626 q 596 728 596 697 q 588 801 596 763 q 562 874 579 840 q 514 928 544 907 q 438 950 483 950 q 340 923 379 950 q 276 849 300 896 q 243 741 253 803 q 233 610 233 679 l 233 111 q 263 40 233 69 q 335 10 293 10 l 335 -15 l 0 -15 l 0 10 l 7 10 q 78 40 49 10 q 107 111 107 69 l 107 624 q 131 775 107 710 q 201 884 156 840 q 306 951 246 928 q 439 974 367 974 q 557 955 503 974 q 651 903 611 936 q 713 829 692 871 q 735 740 735 788 q 703 622 735 674 q 599 539 671 569 q 481 513 550 518 q 586 490 540 506 q 696 419 656 464 z "},"à":{"ha":725,"x_min":-15,"x_max":739,"o":"m 738 25 l 738 0 l 419 0 l 419 25 q 482 56 458 25 q 496 124 506 86 l 450 297 l 182 297 l 135 131 q 149 58 124 92 q 214 25 174 25 l 214 0 l -15 0 l -15 25 q 60 51 26 25 q 107 117 94 76 l 354 972 l 388 972 l 635 103 q 673 47 644 68 q 738 25 701 25 m 189 322 l 443 322 l 321 785 l 189 322 m 381 1014 l 343 1014 l 281 1136 l 353 1136 l 381 1014 z "},"á":{"ha":725,"x_min":-15,"x_max":739,"o":"m 635 103 q 673 47 644 68 q 738 25 701 25 l 738 0 l 419 0 l 419 25 q 482 56 458 25 q 496 124 506 86 l 450 297 l 182 297 l 135 131 q 149 58 124 92 q 214 25 174 25 l 214 0 l -15 0 l -15 25 q 60 51 26 25 q 107 117 94 76 l 354 972 l 388 972 l 635 103 m 189 322 l 443 322 l 321 785 l 189 322 m 460 1135 l 393 1014 l 357 1015 l 388 1136 l 460 1135 z "},"â":{"ha":725,"x_min":-15,"x_max":739,"o":"m 361 1058 l 290 1014 l 249 1014 l 344 1136 l 378 1136 l 474 1014 l 432 1014 l 361 1058 m 635 103 q 673 47 644 68 q 738 25 701 25 l 738 0 l 419 0 l 419 25 q 482 56 458 25 q 496 124 506 86 l 450 297 l 182 297 l 135 131 q 149 58 124 92 q 214 25 174 25 l 214 0 l -15 0 l -15 25 q 60 51 26 25 q 107 117 94 76 l 354 972 l 388 972 l 635 103 m 189 322 l 443 322 l 321 785 l 189 322 z "},"ã":{"ha":725,"x_min":-15,"x_max":739,"o":"m 267 1039 l 258 1039 q 258 1044 258 1040 q 267 1099 258 1078 q 290 1132 275 1121 q 321 1143 304 1143 q 344 1138 335 1143 q 361 1124 354 1132 q 374 1108 368 1115 q 389 1094 381 1100 q 410 1089 397 1089 q 434 1094 424 1089 q 450 1110 444 1099 q 456 1140 456 1121 l 464 1140 q 464 1135 464 1139 q 456 1080 464 1101 q 433 1047 447 1058 q 401 1036 419 1036 q 376 1042 386 1036 q 358 1056 365 1047 q 345 1072 351 1064 q 331 1085 339 1079 q 308 1090 322 1090 q 288 1085 297 1090 q 272 1069 278 1081 q 267 1039 267 1058 m 635 103 q 673 47 644 68 q 738 25 701 25 l 738 0 l 419 0 l 419 25 q 482 56 458 25 q 496 124 506 86 l 450 297 l 182 297 l 135 131 q 149 58 124 92 q 214 25 174 25 l 214 0 l -15 0 l -15 25 q 60 51 26 25 q 107 117 94 76 l 354 972 l 388 972 l 635 103 m 189 322 l 443 322 l 321 785 l 189 322 z "},"ä":{"ha":725,"x_min":-15,"x_max":739,"o":"m 635 103 q 673 47 644 68 q 738 25 701 25 l 738 0 l 419 0 l 419 25 q 482 56 458 25 q 496 124 506 86 l 450 297 l 182 297 l 135 131 q 149 58 124 92 q 214 25 174 25 l 214 0 l -15 0 l -15 25 q 60 51 26 25 q 107 117 94 76 l 354 972 l 388 972 l 635 103 m 189 322 l 443 322 l 321 785 l 189 322 m 325 1046 q 319 1040 325 1046 q 295 1033 313 1033 q 266 1046 278 1033 q 254 1076 254 1058 q 266 1106 254 1093 q 295 1118 278 1118 q 325 1106 313 1118 q 338 1076 338 1093 q 325 1046 338 1058 m 457 1046 q 451 1040 457 1046 q 427 1033 444 1033 q 397 1046 410 1033 q 385 1076 385 1058 q 397 1106 385 1093 q 427 1118 410 1118 q 457 1106 444 1118 q 469 1076 469 1093 q 457 1046 469 1058 z "},"å":{"ha":725,"x_min":-15,"x_max":739,"o":"m 738 25 l 738 0 l 419 0 l 419 25 q 482 56 458 25 q 496 124 506 86 l 450 297 l 182 297 l 135 131 q 149 58 124 92 q 214 25 174 25 l 214 0 l -15 0 l -15 25 q 60 51 26 25 q 107 117 94 76 l 354 972 l 388 972 l 635 103 q 673 47 644 68 q 738 25 701 25 m 189 322 l 443 322 l 321 785 l 189 322 m 436 1001 q 422 986 436 1001 q 369 972 408 972 q 301 1001 329 972 q 274 1068 274 1029 q 301 1135 274 1107 q 369 1164 329 1164 q 436 1135 408 1164 q 464 1068 464 1107 q 436 1001 464 1029 m 422 1122 q 411 1133 422 1122 q 369 1144 400 1144 q 315 1122 338 1144 q 292 1068 292 1100 q 315 1014 292 1036 q 369 992 338 992 q 422 1014 400 992 q 444 1068 444 1036 q 422 1122 444 1100 z "},"æ":{"ha":1124,"x_min":-15,"x_max":1089,"o":"m 1067 292 l 1088 292 l 1088 0 l 419 0 l 419 25 q 482 56 458 25 q 496 124 506 86 l 450 297 l 182 297 l 135 131 q 149 58 124 92 q 214 25 174 25 l 214 0 l -15 0 l -15 25 q 60 51 26 25 q 107 117 94 76 l 354 972 l 388 972 l 604 213 l 604 853 q 576 919 604 892 q 510 947 549 947 l 510 972 l 1078 972 l 1078 707 l 1057 707 q 1036 831 1054 776 q 980 916 1018 885 q 881 947 942 947 l 721 947 l 721 515 l 774 515 q 828 530 804 515 q 867 573 851 544 q 885 644 882 601 l 904 644 l 904 356 l 885 356 q 867 428 882 399 q 828 474 851 458 q 774 490 804 490 l 721 490 l 721 26 q 728 25 724 26 l 869 25 q 983 58 940 25 q 1046 150 1026 90 q 1067 292 1065 210 m 189 322 l 443 322 l 321 785 l 189 322 z "},"ç":{"ha":692,"x_min":31,"x_max":658,"o":"m 638 272 l 658 272 l 658 0 l 639 0 l 639 3 q 606 51 639 38 q 547 42 572 65 q 490 7 528 22 q 408 -12 451 -8 q 400 -12 406 -12 l 392 -26 q 443 -42 426 -26 q 460 -78 460 -57 q 435 -118 460 -103 q 364 -133 411 -133 l 339 -97 q 367 -99 351 -99 q 426 -95 410 -99 q 443 -78 443 -92 q 431 -65 443 -68 q 388 -60 419 -61 q 374 -58 379 -58 q 363 -58 368 -58 l 381 -24 l 388 -12 l 388 -12 q 305 1 349 -12 q 211 49 261 14 q 122 138 161 85 q 56 283 82 192 q 31 486 31 374 q 60 697 31 604 q 131 842 89 790 q 227 928 174 894 q 323 974 281 963 q 400 986 365 986 q 535 926 463 986 q 595 920 561 904 q 629 971 629 936 l 629 974 l 647 974 l 647 701 l 626 701 q 606 764 624 724 q 561 850 589 804 q 490 928 533 896 q 400 961 446 961 q 359 952 383 961 q 300 912 335 943 q 237 833 265 881 q 188 694 208 785 q 167 486 167 603 q 185 314 167 394 q 230 180 203 233 q 290 87 257 126 q 351 30 322 47 q 400 13 379 13 l 401 13 q 422 14 413 13 q 505 44 467 18 q 566 102 543 69 q 606 172 589 135 q 629 233 622 208 q 638 272 636 258 z "},"è":{"ha":626,"x_min":11,"x_max":592,"o":"m 571 292 l 590 292 l 590 0 l 13 0 l 13 25 q 79 53 51 25 q 107 119 107 81 l 107 853 q 79 919 107 892 q 13 947 51 947 l 13 972 l 581 972 l 581 707 l 560 707 q 540 831 558 776 q 483 916 521 885 q 383 947 444 947 l 224 947 l 224 515 l 278 515 q 331 530 307 515 q 369 573 354 544 q 388 644 385 601 l 408 644 l 408 356 l 388 356 q 369 428 385 399 q 331 474 354 458 q 278 490 307 490 l 224 490 l 224 25 l 372 25 q 487 58 444 25 q 549 150 529 90 q 571 292 568 210 m 333 1014 l 297 1014 l 233 1136 l 306 1136 l 333 1014 z "},"é":{"ha":626,"x_min":13,"x_max":592,"o":"m 571 292 l 590 292 l 590 0 l 13 0 l 13 25 q 79 53 51 25 q 107 119 107 81 l 107 853 q 79 919 107 892 q 13 947 51 947 l 13 972 l 581 972 l 581 707 l 560 707 q 540 831 558 776 q 483 916 521 885 q 383 947 444 947 l 224 947 l 224 515 l 278 515 q 331 530 307 515 q 369 573 354 544 q 388 644 385 601 l 408 644 l 408 356 l 388 356 q 369 428 385 399 q 331 474 354 458 q 278 490 307 490 l 224 490 l 224 25 l 372 25 q 487 58 444 25 q 549 150 529 90 q 571 292 568 210 m 404 1135 l 338 1014 l 301 1015 l 332 1136 l 404 1135 z "},"ê":{"ha":626,"x_min":13,"x_max":592,"o":"m 571 292 l 590 292 l 590 0 l 13 0 l 13 25 q 79 53 51 25 q 107 119 107 81 l 107 853 q 79 919 107 892 q 13 947 51 947 l 13 972 l 581 972 l 581 707 l 560 707 q 540 831 558 776 q 483 916 521 885 q 383 947 444 947 l 224 947 l 224 515 l 278 515 q 331 530 307 515 q 369 573 354 544 q 388 644 385 601 l 408 644 l 408 356 l 388 356 q 369 428 385 399 q 331 474 354 458 q 278 490 307 490 l 224 490 l 224 25 l 372 25 q 487 58 444 25 q 549 150 529 90 q 571 292 568 210 m 301 1058 l 231 1014 l 189 1014 l 285 1136 l 318 1136 l 414 1014 l 372 1014 l 301 1058 z "},"ë":{"ha":626,"x_min":11,"x_max":592,"o":"m 571 292 l 590 292 l 590 0 l 13 0 l 13 25 q 79 53 51 25 q 107 119 107 81 l 107 853 q 79 919 107 892 q 13 947 51 947 l 13 972 l 581 972 l 581 707 l 560 707 q 540 831 558 776 q 483 916 521 885 q 383 947 444 947 l 224 947 l 224 515 l 278 515 q 331 530 307 515 q 369 573 354 544 q 388 644 385 601 l 408 644 l 408 356 l 388 356 q 369 428 385 399 q 331 474 354 458 q 278 490 307 490 l 224 490 l 224 25 l 372 25 q 487 58 444 25 q 549 150 529 90 q 571 292 568 210 m 270 1051 q 265 1044 270 1051 q 242 1035 260 1038 q 211 1042 225 1032 q 194 1069 197 1051 q 202 1100 192 1086 q 229 1117 213 1114 q 260 1109 246 1119 q 278 1082 275 1099 q 270 1051 281 1065 m 401 1051 q 397 1044 401 1051 q 374 1035 392 1038 q 343 1042 357 1032 q 326 1069 329 1051 q 333 1100 324 1086 q 360 1117 343 1114 q 392 1109 378 1119 q 408 1082 406 1099 q 401 1051 411 1065 z "},"ì":{"ha":368,"x_min":7,"x_max":364,"o":"m 353 947 q 272 913 306 947 q 239 832 239 879 l 239 140 q 272 59 239 93 q 353 25 306 25 l 364 25 l 364 0 l 7 0 l 7 25 q 88 59 54 25 q 122 140 122 93 l 122 832 q 88 913 122 879 q 7 947 54 947 l 7 972 l 364 972 l 364 947 l 353 947 m 204 1014 l 168 1014 l 104 1136 l 176 1136 l 204 1014 z "},"í":{"ha":368,"x_min":7,"x_max":364,"o":"m 353 947 q 272 913 306 947 q 239 832 239 879 l 239 140 q 272 59 239 93 q 353 25 306 25 l 364 25 l 364 0 l 7 0 l 7 25 q 88 59 54 25 q 122 140 122 93 l 122 832 q 88 913 122 879 q 7 947 54 947 l 7 972 l 364 972 l 364 947 l 353 947 m 272 1135 l 206 1014 l 169 1015 l 200 1136 l 272 1135 z "},"î":{"ha":368,"x_min":7,"x_max":364,"o":"m 353 947 q 272 913 306 947 q 239 832 239 879 l 239 140 q 272 59 239 93 q 353 25 306 25 l 364 25 l 364 0 l 7 0 l 7 25 q 88 59 54 25 q 122 140 122 93 l 122 832 q 88 913 122 879 q 7 947 54 947 l 7 972 l 364 972 l 364 947 l 353 947 m 185 1058 l 114 1014 l 72 1014 l 168 1136 l 201 1136 l 297 1014 l 256 1014 l 185 1058 z "},"ï":{"ha":368,"x_min":7,"x_max":364,"o":"m 353 947 q 272 913 306 947 q 239 832 239 879 l 239 140 q 272 59 239 93 q 353 25 306 25 l 364 25 l 364 0 l 7 0 l 7 25 q 88 59 54 25 q 122 140 122 93 l 122 832 q 88 913 122 879 q 7 947 54 947 l 7 972 l 364 972 l 364 947 l 353 947 m 149 1046 q 142 1040 149 1046 q 119 1033 136 1033 q 90 1046 101 1033 q 78 1076 78 1058 q 90 1106 78 1093 q 119 1118 101 1118 q 149 1106 136 1118 q 161 1076 161 1093 q 149 1046 161 1058 m 285 1051 q 280 1044 285 1051 q 258 1035 275 1038 q 226 1042 240 1032 q 210 1069 213 1051 q 217 1100 207 1086 q 244 1117 228 1114 q 275 1109 261 1119 q 292 1082 289 1099 q 285 1051 294 1065 z "},"ñ":{"ha":753,"x_min":10,"x_max":744,"o":"m 533 972 l 744 972 l 744 947 q 678 919 706 947 q 650 853 650 892 l 650 -12 l 621 -12 l 185 851 q 156 864 175 868 q 138 840 138 860 l 138 132 q 169 56 138 88 q 244 25 200 25 l 246 25 l 246 0 l 10 0 l 10 25 q 85 56 54 25 q 117 132 117 88 l 117 840 q 85 916 117 885 q 10 947 54 947 l 10 972 l 264 972 l 582 331 q 610 318 590 314 q 629 342 629 322 l 629 853 q 601 919 629 892 q 533 947 574 947 l 533 972 m 282 1039 l 274 1039 q 274 1044 274 1040 q 283 1099 274 1078 q 306 1132 292 1121 q 338 1143 319 1143 q 360 1138 351 1143 q 376 1124 369 1132 q 390 1108 383 1115 q 406 1094 397 1100 q 425 1089 414 1089 q 449 1094 439 1089 q 466 1110 460 1099 q 472 1140 472 1121 l 481 1140 q 481 1135 481 1139 q 472 1080 481 1101 q 449 1047 463 1058 q 417 1036 435 1036 q 391 1042 401 1036 q 374 1056 381 1047 q 360 1072 367 1064 q 346 1085 354 1079 q 324 1090 338 1090 q 303 1085 313 1090 q 288 1069 294 1081 q 282 1039 282 1058 z "},"ò":{"ha":736,"x_min":29,"x_max":707,"o":"m 198 918 q 237 951 198 918 q 368 985 276 985 q 538 918 460 985 q 662 737 617 851 q 707 486 707 622 q 662 235 707 350 q 538 54 617 121 q 368 -12 460 -12 q 198 54 276 -12 q 74 235 119 121 q 29 486 29 350 q 74 737 29 622 q 198 918 119 851 m 258 76 q 283 44 258 76 q 368 13 308 13 q 478 76 428 13 q 557 249 528 139 q 586 487 586 358 q 557 725 586 615 q 478 898 528 835 q 368 961 428 961 q 258 898 308 961 q 179 725 208 835 q 150 487 150 615 q 179 249 150 358 q 258 76 208 139 m 389 1014 l 353 1014 l 289 1136 l 361 1136 l 389 1014 z "},"ó":{"ha":736,"x_min":29,"x_max":707,"o":"m 198 918 q 237 951 198 918 q 368 985 276 985 q 538 918 460 985 q 662 737 617 851 q 707 486 707 622 q 662 235 707 350 q 538 54 617 121 q 368 -12 460 -12 q 198 54 276 -12 q 74 235 119 121 q 29 486 29 350 q 74 737 29 622 q 198 918 119 851 m 258 76 q 283 44 258 76 q 368 13 308 13 q 478 76 428 13 q 557 249 528 139 q 586 487 586 358 q 557 725 586 615 q 478 898 528 835 q 368 961 428 961 q 258 898 308 961 q 179 725 208 835 q 150 487 150 615 q 179 249 150 358 q 258 76 208 139 m 453 1135 l 386 1014 l 350 1015 l 381 1136 l 453 1135 z "},"ô":{"ha":736,"x_min":29,"x_max":707,"o":"m 198 918 q 237 951 198 918 q 368 985 276 985 q 538 918 460 985 q 662 737 617 851 q 707 486 707 622 q 662 235 707 350 q 538 54 617 121 q 368 -12 460 -12 q 198 54 276 -12 q 74 235 119 121 q 29 486 29 350 q 74 737 29 622 q 198 918 119 851 m 258 76 q 283 44 258 76 q 368 13 308 13 q 478 76 428 13 q 557 249 528 139 q 586 487 586 358 q 557 725 586 615 q 478 898 528 835 q 368 961 428 961 q 258 898 308 961 q 179 725 208 835 q 150 487 150 615 q 179 249 150 358 q 258 76 208 139 m 368 1058 l 296 1014 l 256 1014 l 351 1136 l 385 1136 l 481 1014 l 439 1014 l 368 1058 z "},"õ":{"ha":736,"x_min":29,"x_max":707,"o":"m 198 918 q 237 951 198 918 q 368 985 276 985 q 538 918 460 985 q 662 737 617 851 q 707 486 707 622 q 662 235 707 350 q 538 54 617 121 q 368 -12 460 -12 q 198 54 276 -12 q 74 235 119 121 q 29 486 29 350 q 74 737 29 622 q 198 918 119 851 m 258 76 q 283 44 258 76 q 368 13 308 13 q 478 76 428 13 q 557 249 528 139 q 586 487 586 358 q 557 725 586 615 q 478 898 528 835 q 368 961 428 961 q 258 898 308 961 q 179 725 208 835 q 150 487 150 615 q 179 249 150 358 q 258 76 208 139 m 274 1039 l 265 1039 q 265 1044 265 1040 q 274 1099 265 1078 q 297 1132 282 1121 q 328 1143 311 1143 q 351 1138 342 1143 q 368 1124 361 1132 q 381 1108 375 1115 q 396 1094 388 1100 q 417 1089 404 1089 q 440 1094 431 1089 q 456 1110 450 1099 q 463 1140 463 1121 l 471 1140 q 471 1135 471 1139 q 463 1080 471 1101 q 440 1047 454 1058 q 408 1036 425 1036 q 382 1042 392 1036 q 365 1056 372 1047 q 352 1072 358 1064 q 337 1085 346 1079 q 315 1090 328 1090 q 294 1085 304 1090 q 279 1069 285 1081 q 274 1039 274 1058 z "},"ö":{"ha":736,"x_min":29,"x_max":707,"o":"m 198 918 q 237 951 198 918 q 368 985 276 985 q 538 918 460 985 q 662 737 617 851 q 707 486 707 622 q 662 235 707 350 q 538 54 617 121 q 368 -12 460 -12 q 198 54 276 -12 q 74 235 119 121 q 29 486 29 350 q 74 737 29 622 q 198 918 119 851 m 258 76 q 283 44 258 76 q 368 13 308 13 q 478 76 428 13 q 557 249 528 139 q 586 487 586 358 q 557 725 586 615 q 478 898 528 835 q 368 961 428 961 q 258 898 308 961 q 179 725 208 835 q 150 487 150 615 q 179 249 150 358 q 258 76 208 139 m 332 1046 q 326 1040 332 1046 q 302 1033 319 1033 q 273 1046 285 1033 q 261 1076 261 1058 q 273 1106 261 1093 q 302 1118 285 1118 q 332 1106 319 1118 q 344 1076 344 1093 q 332 1046 344 1058 m 467 1051 q 462 1044 467 1051 q 440 1035 457 1038 q 410 1042 424 1032 q 393 1069 396 1051 q 400 1100 390 1086 q 427 1117 410 1114 q 458 1109 444 1119 q 475 1082 472 1099 q 467 1051 478 1065 z "},"ø":{"ha":736,"x_min":29,"x_max":707,"o":"m 538 918 q 661 737 615 851 q 707 486 707 622 q 662 235 707 350 q 538 54 617 121 q 368 -12 460 -12 q 214 42 286 -12 l 154 -117 l 135 -117 l 197 54 q 75 235 121 121 q 29 486 29 350 q 74 737 29 622 q 198 918 119 851 q 368 985 276 985 q 522 931 450 985 l 582 1089 l 601 1089 l 538 918 m 150 486 q 225 128 150 271 l 499 867 q 368 961 440 961 q 258 898 308 961 q 179 725 208 835 q 150 486 150 615 m 368 13 q 478 76 428 13 q 557 249 528 139 q 586 486 586 358 q 511 844 586 703 l 238 107 q 368 13 296 13 z "},"ù":{"ha":714,"x_min":7,"x_max":708,"o":"m 494 972 l 707 972 l 707 947 l 703 947 q 637 919 664 947 q 610 853 610 892 l 610 299 q 551 60 610 139 q 367 -18 492 -18 q 165 56 228 -18 q 101 299 101 131 l 101 853 q 74 919 101 892 q 7 947 46 947 l 7 972 l 322 972 l 322 947 l 311 947 q 245 919 272 947 q 218 853 218 892 l 218 311 q 225 193 218 247 q 251 99 232 139 q 304 35 269 58 q 393 13 339 13 q 499 42 456 13 q 566 134 543 71 q 589 299 589 197 l 589 853 q 562 919 589 892 q 496 947 535 947 l 494 947 l 494 972 m 428 1014 l 392 1014 l 328 1136 l 400 1136 l 428 1014 z "},"ú":{"ha":714,"x_min":7,"x_max":708,"o":"m 494 972 l 707 972 l 707 947 l 703 947 q 637 919 664 947 q 610 853 610 892 l 610 299 q 551 60 610 139 q 367 -18 492 -18 q 165 56 228 -18 q 101 299 101 131 l 101 853 q 74 919 101 892 q 7 947 46 947 l 7 972 l 322 972 l 322 947 l 311 947 q 245 919 272 947 q 218 853 218 892 l 218 311 q 225 193 218 247 q 251 99 232 139 q 304 35 269 58 q 393 13 339 13 q 499 42 456 13 q 566 134 543 71 q 589 299 589 197 l 589 853 q 562 919 589 892 q 496 947 535 947 l 494 947 l 494 972 m 508 1135 l 442 1014 l 406 1015 l 436 1136 l 508 1135 z "},"û":{"ha":714,"x_min":7,"x_max":708,"o":"m 494 972 l 707 972 l 707 947 l 703 947 q 637 919 664 947 q 610 853 610 892 l 610 299 q 551 60 610 139 q 367 -18 492 -18 q 165 56 228 -18 q 101 299 101 131 l 101 853 q 74 919 101 892 q 7 947 46 947 l 7 972 l 322 972 l 322 947 l 311 947 q 245 919 272 947 q 218 853 218 892 l 218 311 q 225 193 218 247 q 251 99 232 139 q 304 35 269 58 q 393 13 339 13 q 499 42 456 13 q 566 134 543 71 q 589 299 589 197 l 589 853 q 562 919 589 892 q 496 947 535 947 l 494 947 l 494 972 m 357 1058 l 286 1014 l 244 1014 l 340 1136 l 374 1136 l 469 1014 l 428 1014 l 357 1058 z "},"ü":{"ha":714,"x_min":7,"x_max":708,"o":"m 494 972 l 707 972 l 707 947 l 703 947 q 637 919 664 947 q 610 853 610 892 l 610 299 q 551 60 610 139 q 367 -18 492 -18 q 165 56 228 -18 q 101 299 101 131 l 101 853 q 74 919 101 892 q 7 947 46 947 l 7 972 l 322 972 l 322 947 l 311 947 q 245 919 272 947 q 218 853 218 892 l 218 311 q 225 193 218 247 q 251 99 232 139 q 304 35 269 58 q 393 13 339 13 q 499 42 456 13 q 566 134 543 71 q 589 299 589 197 l 589 853 q 562 919 589 892 q 496 947 535 947 l 494 947 l 494 972 m 326 1051 q 320 1044 326 1051 q 298 1035 315 1038 q 267 1042 281 1032 q 250 1069 253 1051 q 258 1100 247 1086 q 285 1117 268 1114 q 316 1109 301 1119 q 333 1082 331 1099 q 326 1051 336 1065 m 453 1046 q 447 1040 453 1046 q 423 1033 440 1033 q 393 1046 406 1033 q 381 1076 381 1058 q 393 1106 381 1093 q 423 1118 406 1118 q 453 1106 440 1118 q 465 1076 465 1093 q 453 1046 465 1058 z "},"ý":{"ha":692,"x_min":-17,"x_max":707,"o":"m 492 972 l 706 972 l 706 947 q 638 927 669 947 q 592 875 607 907 l 413 496 l 413 119 q 440 53 413 81 q 507 25 468 25 l 507 0 l 203 0 l 203 25 q 269 53 242 25 q 296 119 296 81 l 296 468 l 97 876 q 50 928 81 908 q -17 947 19 947 l -17 972 l 303 972 l 303 947 q 246 916 265 947 q 243 851 226 885 l 401 519 l 556 849 q 551 915 571 883 q 492 947 531 947 l 492 972 m 483 1135 l 417 1014 l 381 1015 l 411 1136 l 483 1135 z "},"ÿ":{"ha":692,"x_min":-17,"x_max":707,"o":"m 492 972 l 706 972 l 706 947 q 638 927 669 947 q 592 875 607 907 l 413 496 l 413 119 q 440 53 413 81 q 507 25 468 25 l 507 0 l 203 0 l 203 25 q 269 53 242 25 q 296 119 296 81 l 296 468 l 97 876 q 50 928 81 908 q -17 947 19 947 l -17 972 l 303 972 l 303 947 q 246 916 265 947 q 243 851 226 885 l 401 519 l 556 849 q 551 915 571 883 q 492 947 531 947 l 492 972 m 308 1046 q 302 1040 308 1046 q 278 1033 296 1033 q 249 1046 261 1033 q 238 1076 238 1058 q 249 1106 238 1093 q 278 1118 261 1118 q 308 1106 296 1118 q 321 1076 321 1093 q 308 1046 321 1058 m 444 1051 q 440 1044 444 1051 q 417 1035 435 1038 q 386 1042 400 1032 q 369 1069 372 1051 q 376 1100 367 1086 q 403 1117 386 1114 q 435 1109 421 1119 q 451 1082 449 1099 q 444 1051 454 1065 z "},"Đ":{"ha":749,"x_min":21,"x_max":717,"o":"m 336 972 q 394 969 365 972 q 462 953 422 965 q 535 920 501 940 q 603 863 568 900 q 662 776 638 825 q 701 652 686 726 q 717 486 717 578 q 701 324 717 397 q 663 201 686 250 q 606 113 639 151 q 538 54 572 75 q 465 20 504 33 q 396 3 426 7 q 336 0 365 -1 l 32 0 l 32 25 q 99 53 71 25 q 126 119 126 81 l 126 417 l 21 417 l 21 533 l 126 533 l 126 853 q 99 919 126 892 q 32 947 71 947 l 32 972 l 336 972 m 336 25 q 365 28 349 25 q 406 43 381 32 q 456 73 432 54 q 505 127 479 92 q 549 209 531 163 q 579 327 567 256 q 592 486 592 399 q 569 675 592 590 q 514 808 546 760 q 444 890 482 857 q 378 935 406 924 q 336 947 351 947 l 243 947 l 243 533 l 349 533 l 349 417 l 243 417 l 243 25 l 336 25 z "},"đ":{"ha":749,"x_min":21,"x_max":717,"o":"m 336 972 q 394 969 365 972 q 462 953 422 965 q 535 920 501 940 q 603 863 568 900 q 662 776 638 825 q 701 652 686 726 q 717 486 717 578 q 701 324 717 397 q 663 201 686 250 q 606 113 639 151 q 538 54 572 75 q 465 20 504 33 q 396 3 426 7 q 336 0 365 -1 l 32 0 l 32 25 q 99 53 71 25 q 126 119 126 81 l 126 417 l 21 417 l 21 533 l 126 533 l 126 853 q 99 919 126 892 q 32 947 71 947 l 32 972 l 336 972 m 336 25 q 365 28 349 25 q 406 43 381 32 q 456 73 432 54 q 505 127 479 92 q 549 209 531 163 q 579 327 567 256 q 592 486 592 399 q 569 675 592 590 q 514 808 546 760 q 444 890 482 857 q 378 935 406 924 q 336 947 351 947 l 243 947 l 243 533 l 349 533 l 349 417 l 243 417 l 243 25 l 336 25 z "},"ı":{"ha":156,"x_min":38,"x_max":118,"o":"m 118 68 l 38 68 l 38 664 l 118 664 l 118 68 z "},"Œ":{"ha":1115,"x_min":28,"x_max":1079,"o":"m 1057 292 l 1078 292 l 1078 0 l 500 0 l 500 25 q 565 51 538 25 q 593 114 592 76 q 368 -12 497 -12 q 198 54 276 -12 q 74 235 119 121 q 29 486 29 350 q 74 737 29 622 q 198 918 119 851 q 368 985 276 985 q 593 858 497 985 q 565 922 592 896 q 500 947 538 947 l 500 972 l 1068 972 l 1068 707 l 1047 707 q 1026 831 1044 776 q 970 916 1008 885 q 871 947 932 947 l 711 947 l 711 515 l 764 515 q 818 530 794 515 q 857 573 842 544 q 875 644 872 601 l 894 644 l 894 356 l 875 356 q 857 428 872 399 q 818 474 842 458 q 764 490 794 490 l 711 490 l 711 25 l 860 25 q 974 58 931 25 q 1036 150 1017 90 q 1057 292 1056 210 m 258 76 q 283 44 258 76 q 368 13 308 13 q 478 76 428 13 q 557 249 528 139 q 586 487 586 358 q 557 725 586 615 q 478 898 528 835 q 368 961 428 961 q 258 898 308 961 q 179 725 208 835 q 150 487 150 615 q 179 249 150 358 q 258 76 208 139 z "},"œ":{"ha":1115,"x_min":28,"x_max":1079,"o":"m 1057 292 l 1078 292 l 1078 0 l 500 0 l 500 25 q 565 51 538 25 q 593 114 592 76 q 368 -12 497 -12 q 198 54 276 -12 q 74 235 119 121 q 29 486 29 350 q 74 737 29 622 q 198 918 119 851 q 368 985 276 985 q 593 858 497 985 q 565 922 592 896 q 500 947 538 947 l 500 972 l 1068 972 l 1068 707 l 1047 707 q 1026 831 1044 776 q 970 916 1008 885 q 871 947 932 947 l 711 947 l 711 515 l 764 515 q 818 530 794 515 q 857 573 842 544 q 875 644 872 601 l 894 644 l 894 356 l 875 356 q 857 428 872 399 q 818 474 842 458 q 764 490 794 490 l 711 490 l 711 25 l 860 25 q 974 58 931 25 q 1036 150 1017 90 q 1057 292 1056 210 m 258 76 q 283 44 258 76 q 368 13 308 13 q 478 76 428 13 q 557 249 528 139 q 586 487 586 358 q 557 725 586 615 q 478 898 528 835 q 368 961 428 961 q 258 898 308 961 q 179 725 208 835 q 150 487 150 615 q 179 249 150 358 q 258 76 208 139 z "},"Š":{"ha":574,"x_min":38,"x_max":539,"o":"m 128 818 q 145 748 128 782 q 192 687 163 714 q 258 629 221 660 q 333 571 294 599 q 409 507 372 543 q 474 434 446 471 q 521 347 503 397 q 539 242 539 297 q 516 117 539 169 q 455 38 493 64 q 378 -1 417 11 q 299 -14 339 -14 q 231 -3 263 -14 q 186 18 200 8 q 150 46 172 28 q 90 52 124 68 q 56 1 57 36 q 56 0 56 1 l 38 0 l 38 271 l 58 271 q 79 209 61 250 q 126 123 97 168 q 197 45 154 78 q 285 13 240 13 q 338 19 310 13 q 394 42 365 26 q 441 89 422 57 q 460 164 460 121 q 442 235 460 199 q 394 303 424 272 q 328 368 365 333 q 251 433 290 403 q 175 501 213 464 q 108 574 138 538 q 61 653 79 610 q 43 742 43 697 q 63 856 43 807 q 108 928 82 904 q 169 966 135 951 q 224 983 204 981 q 263 986 244 986 q 265 986 264 986 q 265 986 265 986 q 267 986 265 986 q 400 926 329 986 q 460 920 426 904 q 496 971 494 936 q 496 972 496 971 l 514 972 l 514 701 l 493 701 q 473 763 490 722 q 428 848 456 803 q 358 926 401 893 q 269 961 315 960 q 165 918 201 960 q 128 818 128 876 m 306 1014 l 272 1014 l 175 1136 l 217 1136 l 289 1092 l 360 1136 l 401 1136 l 306 1014 z "},"š":{"ha":574,"x_min":38,"x_max":539,"o":"m 128 818 q 145 748 128 782 q 192 687 163 714 q 258 629 221 660 q 333 571 294 599 q 409 507 372 543 q 474 434 446 471 q 521 347 503 397 q 539 242 539 297 q 516 117 539 169 q 455 38 493 64 q 378 -1 417 11 q 299 -14 339 -14 q 231 -3 263 -14 q 186 18 200 8 q 150 46 172 28 q 90 52 124 68 q 56 1 57 36 q 56 0 56 1 l 38 0 l 38 271 l 58 271 q 79 209 61 250 q 126 123 97 168 q 197 45 154 78 q 285 13 240 13 q 338 19 310 13 q 394 42 365 26 q 441 89 422 57 q 460 164 460 121 q 442 235 460 199 q 394 303 424 272 q 328 368 365 333 q 251 433 290 403 q 175 501 213 464 q 108 574 138 538 q 61 653 79 610 q 43 742 43 697 q 63 856 43 807 q 108 928 82 904 q 169 966 135 951 q 224 983 204 981 q 263 986 244 986 q 265 986 264 986 q 265 986 265 986 q 267 986 265 986 q 400 926 329 986 q 460 920 426 904 q 496 971 494 936 q 496 972 496 971 l 514 972 l 514 701 l 493 701 q 473 763 490 722 q 428 848 456 803 q 358 926 401 893 q 269 961 315 960 q 165 918 201 960 q 128 818 128 876 m 306 1014 l 272 1014 l 175 1136 l 217 1136 l 289 1092 l 360 1136 l 401 1136 l 306 1014 z "},"Ÿ":{"ha":692,"x_min":-17,"x_max":707,"o":"m 492 972 l 706 972 l 706 947 q 638 927 669 947 q 592 875 607 907 l 413 496 l 413 119 q 440 53 413 81 q 507 25 468 25 l 507 0 l 203 0 l 203 25 q 269 53 242 25 q 296 119 296 81 l 296 468 l 97 876 q 50 928 81 908 q -17 947 19 947 l -17 972 l 303 972 l 303 947 q 246 916 265 947 q 243 851 226 885 l 401 519 l 556 849 q 551 915 571 883 q 492 947 531 947 l 492 972 m 308 1046 q 302 1040 308 1046 q 278 1033 296 1033 q 249 1046 261 1033 q 238 1076 238 1058 q 249 1106 238 1093 q 278 1118 261 1118 q 308 1106 296 1118 q 321 1076 321 1093 q 308 1046 321 1058 m 444 1051 q 440 1044 444 1051 q 417 1035 435 1038 q 386 1042 400 1032 q 369 1069 372 1051 q 376 1100 367 1086 q 403 1117 386 1114 q 435 1109 421 1119 q 451 1082 449 1099 q 444 1051 454 1065 z "},"Ž":{"ha":583,"x_min":15,"x_max":563,"o":"m 540 251 l 561 251 l 561 0 l 15 0 l 15 25 l 424 947 l 244 947 q 135 926 174 947 q 79 860 96 904 q 60 747 63 817 l 39 747 l 39 972 l 554 972 l 554 947 l 144 25 l 356 25 q 467 48 428 25 q 522 120 506 71 q 540 251 538 169 m 306 1014 l 272 1014 l 175 1136 l 217 1136 l 289 1092 l 360 1136 l 401 1136 l 306 1014 z "},"ž":{"ha":583,"x_min":15,"x_max":563,"o":"m 540 251 l 561 251 l 561 0 l 15 0 l 15 25 l 424 947 l 244 947 q 135 926 174 947 q 79 860 96 904 q 60 747 63 817 l 39 747 l 39 972 l 554 972 l 554 947 l 144 25 l 356 25 q 467 48 428 25 q 522 120 506 71 q 540 251 538 169 m 306 1014 l 272 1014 l 175 1136 l 217 1136 l 289 1092 l 360 1136 l 401 1136 l 306 1014 z "},"–":{"ha":486,"x_min":24,"x_max":463,"o":"m 463 358 l 24 358 l 24 382 l 463 382 l 463 358 z "},"—":{"ha":740,"x_min":24,"x_max":717,"o":"m 717 358 l 24 358 l 24 382 l 717 382 l 717 358 z "},"‘":{"ha":268,"x_min":39,"x_max":229,"o":"m 219 881 q 225 868 228 878 q 219 865 222 864 q 179 859 200 868 q 144 833 158 850 q 122 798 131 817 q 121 760 114 779 q 149 731 128 740 q 199 702 179 725 q 218 650 218 679 q 194 592 218 615 q 136 568 171 568 q 83 588 107 568 q 45 664 51 614 q 56 761 39 714 q 117 844 74 808 q 217 882 160 881 q 219 881 218 882 z "},"’":{"ha":268,"x_min":38,"x_max":228,"o":"m 183 808 q 222 732 215 782 q 210 635 228 682 q 150 551 193 588 q 50 514 107 515 q 47 515 49 514 q 42 528 39 518 q 47 532 44 532 q 88 537 67 528 q 123 563 108 546 q 145 599 138 579 q 146 637 153 618 q 118 667 139 656 q 69 694 89 671 q 49 746 49 717 q 72 804 49 781 q 131 828 96 828 q 183 808 160 828 z "},"“":{"ha":450,"x_min":39,"x_max":411,"o":"m 219 881 q 225 868 228 878 q 219 865 222 864 q 179 859 200 868 q 144 833 158 850 q 122 798 131 817 q 121 760 114 779 q 149 731 128 740 q 199 702 179 725 q 218 650 218 679 q 194 592 218 615 q 136 568 171 568 q 83 588 107 568 q 45 664 51 614 q 56 761 39 714 q 117 844 74 808 q 217 882 160 881 q 219 881 218 882 m 401 881 q 407 868 411 878 q 401 865 406 864 q 361 859 382 868 q 326 833 340 850 q 304 798 313 817 q 303 760 296 779 q 331 731 310 740 q 381 702 361 725 q 400 650 400 679 q 376 592 400 615 q 318 568 353 568 q 265 588 289 568 q 227 664 233 614 q 238 762 221 714 q 299 845 256 810 q 399 882 342 881 q 401 881 400 882 z "},"”":{"ha":450,"x_min":38,"x_max":410,"o":"m 183 808 q 222 732 215 782 q 210 635 228 682 q 150 551 193 588 q 50 514 107 515 q 47 515 49 514 q 42 528 39 518 q 47 532 44 532 q 88 537 67 528 q 123 563 108 546 q 145 599 138 579 q 146 637 153 618 q 118 667 139 656 q 69 694 89 671 q 49 746 49 717 q 72 804 49 781 q 131 828 96 828 q 183 808 160 828 m 365 808 q 403 732 397 782 q 392 635 410 682 q 332 551 375 588 q 233 514 289 515 q 229 515 231 514 q 225 528 221 518 q 229 532 226 532 q 269 537 249 528 q 305 563 290 546 q 327 599 319 579 q 328 637 335 618 q 300 667 321 656 q 251 694 271 671 q 231 746 231 717 q 255 804 231 781 q 313 828 279 828 q 365 808 342 828 z "},"„":{"ha":442,"x_min":29,"x_max":401,"o":"m 175 232 q 213 156 207 206 q 202 58 219 106 q 142 -25 185 11 q 42 -62 99 -61 q 39 -61 40 -62 q 33 -49 31 -58 q 39 -44 36 -44 q 79 -40 58 -49 q 115 -14 100 -31 q 137 22 129 3 q 138 60 144 42 q 110 90 131 79 q 60 117 81 94 q 40 171 40 140 q 64 228 40 204 q 122 251 88 251 q 175 232 151 251 m 357 232 q 395 156 389 206 q 384 58 401 106 q 324 -25 367 11 q 225 -62 281 -61 q 221 -61 222 -62 q 217 -49 213 -58 q 221 -44 218 -44 q 261 -40 240 -49 q 297 -14 282 -31 q 319 22 311 3 q 319 60 326 42 q 292 90 313 79 q 242 117 263 94 q 222 171 222 140 q 247 228 222 204 q 304 251 271 251 q 357 232 333 251 z "},"†":{"ha":660,"x_min":69,"x_max":592,"o":"m 521 721 q 572 699 554 721 q 590 645 590 678 q 572 591 590 613 q 521 569 554 569 q 512 570 517 569 q 501 571 507 571 q 452 586 474 576 q 412 607 431 596 q 374 626 393 618 q 340 633 358 632 q 349 588 342 608 q 373 538 358 560 q 406 500 388 515 q 374 381 386 454 q 353 206 361 307 q 343 -25 346 104 q 340 -310 340 -154 l 319 -310 q 317 -26 319 -154 q 306 205 314 103 q 286 381 299 307 q 254 500 274 454 q 287 538 272 515 q 311 588 301 560 q 319 633 318 608 q 286 626 301 632 q 248 607 267 618 q 208 586 229 596 q 158 571 186 576 q 148 570 153 571 q 139 569 143 569 q 88 591 107 569 q 69 645 69 613 q 88 699 69 678 q 139 721 107 721 l 149 721 q 158 719 153 721 q 208 705 186 715 q 248 684 229 694 q 286 665 267 674 q 319 658 301 660 q 314 729 319 701 q 299 783 307 760 q 282 829 290 806 q 269 889 274 853 q 269 901 269 896 q 269 913 269 907 q 287 976 269 953 q 330 999 304 999 q 373 976 356 999 q 390 913 390 953 l 390 901 q 390 889 390 896 q 378 829 386 853 q 361 783 369 806 q 346 729 353 760 q 340 658 340 701 q 374 665 358 660 q 412 684 393 674 q 452 705 431 694 q 501 719 474 715 q 513 721 507 721 l 521 721 z "},"•":{"ha":244,"x_min":36,"x_max":207,"o":"m 165 483 q 174 478 165 483 q 195 453 183 472 q 207 413 207 435 q 195 372 207 390 q 165 342 183 353 q 122 332 146 332 q 79 342 99 332 q 49 372 60 353 q 38 413 38 390 q 49 453 38 435 q 79 483 60 472 q 122 494 99 494 q 165 483 146 494 z "},"…":{"ha":751,"x_min":38,"x_max":714,"o":"m 176 -1 q 165 -13 176 -1 q 119 -25 153 -25 q 61 -1 85 -25 q 38 56 38 22 q 61 114 38 90 q 119 138 85 138 q 176 114 153 138 q 200 56 200 90 q 176 -1 200 22 m 318 114 q 330 126 318 114 q 376 138 342 138 q 433 114 410 138 q 457 56 457 90 q 433 -1 457 22 q 376 -25 410 -25 q 318 -1 342 -25 q 294 56 294 22 q 318 114 294 90 m 690 -1 q 677 -13 690 -1 q 632 -25 665 -25 q 574 -1 599 -25 q 550 56 550 22 q 574 114 550 90 q 632 138 599 138 q 690 114 665 138 q 714 56 714 90 q 690 -1 714 22 z "},"‰":{"ha":1557,"x_min":43,"x_max":1514,"o":"m 788 986 l 810 986 l 272 14 l 250 14 l 788 986 m 401 501 q 385 483 401 501 q 331 447 369 465 q 258 429 293 429 q 175 447 214 429 q 106 501 136 465 q 60 591 76 538 q 43 714 43 644 q 60 836 43 783 q 106 925 76 889 q 175 980 136 961 q 258 999 214 999 q 340 980 301 999 q 408 925 379 961 q 454 836 438 889 q 471 714 471 783 q 452 591 471 644 q 401 501 433 538 m 188 529 q 193 511 188 529 q 214 473 197 493 q 258 453 231 453 q 300 473 283 453 q 326 529 317 493 q 340 613 336 565 q 343 714 343 661 q 340 815 343 767 q 326 898 336 863 q 300 954 317 933 q 258 975 283 975 q 214 954 231 975 q 188 898 197 933 q 175 815 179 863 q 171 714 171 767 q 175 613 171 660 q 188 529 179 565 m 1450 498 q 1465 480 1450 498 q 1496 408 1479 461 q 1513 286 1513 356 q 1494 163 1513 217 q 1443 74 1475 110 q 1374 19 1411 38 q 1299 1 1336 1 q 1216 19 1254 1 q 1148 74 1178 38 q 1101 163 1118 110 q 1085 286 1085 217 q 1101 408 1085 356 q 1148 498 1118 461 q 1216 553 1178 535 q 1299 571 1254 571 q 1382 553 1343 571 q 1450 498 1421 535 m 1368 101 q 1373 119 1368 101 q 1382 185 1378 138 q 1386 286 1386 233 q 1382 388 1386 340 q 1368 470 1378 435 q 1342 526 1358 506 q 1299 547 1325 547 q 1256 526 1274 547 q 1230 470 1239 506 q 1217 388 1221 435 q 1213 286 1213 340 q 1217 185 1213 233 q 1230 101 1221 138 q 1256 45 1239 65 q 1299 25 1274 25 q 1342 45 1325 25 q 1368 101 1358 65 m 886 553 q 906 544 886 553 q 955 498 925 535 q 1001 408 985 461 q 1018 286 1018 356 q 999 163 1018 217 q 947 74 979 110 q 877 19 915 38 q 803 1 839 1 q 721 19 760 1 q 652 74 682 38 q 606 163 622 110 q 589 286 589 217 q 606 408 589 356 q 652 498 622 461 q 721 553 682 535 q 803 571 760 571 q 886 553 847 571 m 873 101 q 877 119 873 101 q 886 185 882 138 q 890 286 890 233 q 886 388 890 340 q 873 470 882 435 q 847 526 864 506 q 803 547 829 547 q 760 526 776 547 q 734 470 743 506 q 721 388 725 435 q 717 286 717 340 q 721 185 717 233 q 734 101 725 138 q 760 45 743 65 q 803 25 776 25 q 847 45 829 25 q 873 101 864 65 z "},"‹":{"ha":435,"x_min":33,"x_max":397,"o":"m 396 818 l 179 515 l 396 214 l 386 201 l 33 500 l 33 532 l 386 831 l 396 818 z "},"›":{"ha":435,"x_min":38,"x_max":401,"o":"m 47 831 l 400 532 l 400 500 l 47 201 l 38 214 l 253 515 l 38 818 l 47 831 z "},"€":{"ha":739,"x_min":32,"x_max":693,"o":"m 559 60 q 579 75 559 60 q 626 138 599 89 q 665 244 653 186 l 688 244 q 643 126 674 182 q 565 35 613 69 q 454 1 517 1 q 334 37 392 1 q 230 139 276 72 q 156 297 183 206 q 151 313 154 300 l 33 313 l 33 336 l 146 336 q 128 500 128 413 q 128 503 128 501 q 128 507 128 506 l 33 507 l 33 532 l 129 532 q 153 692 132 617 q 224 851 178 782 q 335 960 271 921 q 481 999 400 999 q 568 980 529 999 q 635 932 607 961 q 678 869 663 903 q 693 808 693 836 q 683 759 693 779 q 658 728 674 739 q 625 718 643 718 q 594 728 610 718 q 569 756 579 738 q 558 801 558 774 q 568 844 558 825 q 593 872 578 863 q 625 881 608 881 q 653 874 639 881 q 621 917 640 897 q 564 956 596 942 q 493 971 532 971 q 386 930 429 971 q 317 820 343 889 q 279 668 290 751 q 268 532 269 600 l 492 532 l 492 507 l 267 507 q 267 503 267 506 q 267 500 267 501 q 278 336 267 414 l 492 336 l 492 313 l 282 313 q 319 172 294 233 q 383 69 344 107 q 471 32 421 32 q 559 60 519 32 z "}}}
